<svg width="866" height="452" viewBox="0 0 866 452" fill="none" xmlns="http://www.w3.org/2000/svg">
<g id="Frame 1">
<g id="ltor">
<path id="Vector" opacity="0.4" d="M381.605 270.942C394.749 270.942 405.405 260.302 405.405 247.177C405.405 234.052 394.749 223.412 381.605 223.412C368.46 223.412 357.805 234.052 357.805 247.177C357.805 260.302 368.46 270.942 381.605 270.942Z" fill="#6C63FF"/>
<path id="Vector_2" opacity="0.4" d="M337.557 275.198C346.778 275.198 354.253 267.735 354.253 258.527C354.253 249.32 346.778 241.856 337.557 241.856C328.336 241.856 320.861 249.32 320.861 258.527C320.861 267.735 328.336 275.198 337.557 275.198Z" fill="#6C63FF"/>
<path id="Vector_3" opacity="0.4" d="M158.568 323.112C167.789 323.112 175.264 315.648 175.264 306.441C175.264 297.234 167.789 289.77 158.568 289.77C149.348 289.77 141.873 297.234 141.873 306.441C141.873 315.648 149.348 323.112 158.568 323.112Z" fill="#6C63FF"/>
<path id="Vector_4" d="M43.1329 443.798C44.4231 448.561 48.8423 451.51 48.8423 451.51C48.8423 451.51 51.1697 446.738 49.8795 441.976C48.5893 437.214 44.1701 434.264 44.1701 434.264C44.1701 434.264 41.8427 439.036 43.1329 443.798Z" fill="#3F3D56"/>
<path id="Vector_5" d="M45.0287 442.775C48.569 446.216 49.0015 451.506 49.0015 451.506C49.0015 451.506 43.6939 451.217 40.1536 447.775C36.6132 444.334 36.1808 439.044 36.1808 439.044C36.1808 439.044 41.4884 439.333 45.0287 442.775Z" fill="#6C63FF"/>
<path id="Vector_6" d="M51.8968 408L48.7458 402.756L78.1563 377.584H153.784V384.926L126.474 414.294L94.9622 420.586L51.8968 408Z" fill="#3F3D56"/>
<path id="Vector_7" d="M166.802 392.356V375.946H156.901V381.121L153.784 377.584L128.575 402.756L124.373 406.952L119.121 427.929L128.575 451.002H176.892V403.805L166.802 392.356Z" fill="#CCCCCC"/>
<path id="Vector_8" d="M128.575 402.756H48.7458V451.003H128.575V402.756Z" fill="#F2F2F2"/>
<path id="Vector_9" d="M117.546 417.964H100.74V432.648H117.546V417.964Z" fill="#3F3D56"/>
<path id="Vector_10" d="M93.9121 417.44H79.2068V451.003H93.9121V417.44Z" fill="#CCCCCC"/>
<path id="Vector_11" d="M62.4007 422.684V417.44H56.0988V422.684H61.8752H62.4007Z" fill="#3F3D56"/>
<path id="Vector_12" d="M61.8752 426.879H56.0988V432.124H62.4007V426.879H61.8752Z" fill="#3F3D56"/>
<path id="Vector_13" d="M72.9045 417.44H66.6022V422.684H72.9045V417.44Z" fill="#3F3D56"/>
<path id="Vector_14" d="M72.9045 426.879H66.6022V432.124H72.9045V426.879Z" fill="#3F3D56"/>
<path id="Vector_15" d="M151.158 423.209V417.964H144.855V423.209H150.632H151.158Z" fill="#3F3D56"/>
<path id="Vector_16" d="M150.632 427.404H144.855V432.648H151.158V427.404H150.632Z" fill="#3F3D56"/>
<path id="Vector_17" d="M161.661 417.964H155.359V423.208H161.661V417.964Z" fill="#3F3D56"/>
<path id="Vector_18" d="M161.661 427.404H155.359V432.648H161.661V427.404Z" fill="#3F3D56"/>
<path id="Vector_19" d="M355.796 408L352.646 402.756L382.056 377.584H457.684V384.926L430.374 414.294L398.862 420.586L355.796 408Z" fill="#3F3D56"/>
<path id="Vector_20" d="M470.702 392.356V375.946H460.8V381.121L457.684 377.584L432.475 402.756L428.272 406.952L423.021 427.929L432.475 451.002H480.792V403.805L470.702 392.356Z" fill="#CCCCCC"/>
<path id="Vector_21" d="M432.474 402.756H352.646V451.003H432.474V402.756Z" fill="#F2F2F2"/>
<path id="Vector_22" d="M421.445 417.964H404.639V432.648H421.445V417.964Z" fill="#3F3D56"/>
<path id="Vector_23" d="M397.812 417.44H383.107V451.003H397.812V417.44Z" fill="#CCCCCC"/>
<path id="Vector_24" d="M366.3 422.684V417.44H359.999V422.684H365.775H366.3Z" fill="#3F3D56"/>
<path id="Vector_25" d="M365.775 426.879H359.999V432.124H366.3V426.879H365.775Z" fill="#3F3D56"/>
<path id="Vector_26" d="M376.804 417.44H370.502V422.684H376.804V417.44Z" fill="#3F3D56"/>
<path id="Vector_27" d="M376.804 426.879H370.502V432.124H376.804V426.879Z" fill="#3F3D56"/>
<path id="Vector_28" d="M455.057 423.209V417.964H448.755V423.209H454.532H455.057Z" fill="#3F3D56"/>
<path id="Vector_29" d="M454.532 427.404H448.755V432.648H455.057V427.404H454.532Z" fill="#3F3D56"/>
<path id="Vector_30" d="M465.561 417.964H459.259V423.208H465.561V417.964Z" fill="#3F3D56"/>
<path id="Vector_31" d="M465.561 427.404H459.259V432.648H465.561V427.404Z" fill="#3F3D56"/>
<path id="Vector_32" d="M213.655 319.898L208.404 315.703L237.814 289.482H312.391V312.556L264.074 345.071L213.655 319.898Z" fill="#3F3D56"/>
<path id="Vector_33" d="M325.988 304.19V290.006H316.086V293.48L312.391 289.482L288.232 315.703L278.779 321.996L264.121 428.929L286.226 451.002H337.6V316.751L325.988 304.19Z" fill="#CCCCCC"/>
<path id="Vector_34" d="M288.232 315.703H208.403V451.003H288.232V315.703Z" fill="#F2F2F2"/>
<path id="Vector_35" d="M254.095 417.964H239.389V451.003H254.095V417.964Z" fill="#CCCCCC"/>
<path id="Vector_36" d="M223.634 427.404V422.16H217.332V427.404H223.109H223.634Z" fill="#3F3D56"/>
<path id="Vector_37" d="M223.109 431.599H217.332V436.844H223.634V431.599H223.109Z" fill="#3F3D56"/>
<path id="Vector_38" d="M234.138 422.16H227.835V427.404H234.138V422.16Z" fill="#3F3D56"/>
<path id="Vector_39" d="M234.138 431.599H227.835V436.843H234.138V431.599Z" fill="#3F3D56"/>
<path id="Vector_40" d="M266.699 427.404V422.16H260.397V427.404H266.174H266.699Z" fill="#3F3D56"/>
<path id="Vector_41" d="M266.174 431.599H260.397V436.844H266.699V431.599H266.174Z" fill="#3F3D56"/>
<path id="Vector_42" d="M277.203 422.16H270.901V427.404H277.203V422.16Z" fill="#3F3D56"/>
<path id="Vector_43" d="M277.203 431.599H270.901V436.843H277.203V431.599Z" fill="#3F3D56"/>
<path id="Vector_44" d="M310.815 322.52V317.276H304.513V322.52H310.29H310.815Z" fill="#3F3D56"/>
<path id="Vector_45" d="M310.29 326.716H304.513V331.96H310.815V326.716H310.29Z" fill="#3F3D56"/>
<path id="Vector_46" d="M321.319 317.276H315.017V322.52H321.319V317.276Z" fill="#3F3D56"/>
<path id="Vector_47" d="M321.319 326.716H315.017V331.96H321.319V326.716Z" fill="#3F3D56"/>
<path id="Vector_48" d="M310.815 351.888V346.643H304.513V351.888H310.29H310.815Z" fill="#3F3D56"/>
<path id="Vector_49" d="M310.29 356.083H304.513V361.327H310.815V356.083H310.29Z" fill="#3F3D56"/>
<path id="Vector_50" d="M321.319 346.644H315.017V351.888H321.319V346.644Z" fill="#3F3D56"/>
<path id="Vector_51" d="M321.319 356.083H315.017V361.327H321.319V356.083Z" fill="#3F3D56"/>
<path id="Vector_52" d="M310.815 381.255V376.011H304.513V381.255H310.29H310.815Z" fill="#3F3D56"/>
<path id="Vector_53" d="M310.29 385.45H304.513V390.694H310.815V385.45H310.29Z" fill="#3F3D56"/>
<path id="Vector_54" d="M321.319 376.011H315.017V381.255H321.319V376.011Z" fill="#3F3D56"/>
<path id="Vector_55" d="M321.319 385.45H315.017V390.695H321.319V385.45Z" fill="#3F3D56"/>
<path id="Vector_56" d="M310.815 410.623V405.378H304.513V410.623H310.29H310.815Z" fill="#3F3D56"/>
<path id="Vector_57" d="M310.29 414.818H304.513V420.062H310.815V414.818H310.29Z" fill="#3F3D56"/>
<path id="Vector_58" d="M321.319 405.378H315.017V410.622H321.319V405.378Z" fill="#3F3D56"/>
<path id="Vector_59" d="M321.319 414.818H315.017V420.062H321.319V414.818Z" fill="#3F3D56"/>
<path id="Vector_60" d="M278.254 322.52H217.332V335.106H278.254V322.52Z" fill="#3F3D56"/>
<path id="Vector_61" d="M278.254 347.692H217.332V360.278H278.254V347.692Z" fill="#3F3D56"/>
<path id="Vector_62" d="M278.254 372.864H217.332V385.45H278.254V372.864Z" fill="#3F3D56"/>
<path id="Vector_63" d="M278.254 398.036H217.332V410.622H278.254V398.036Z" fill="#3F3D56"/>
<path id="Vector_64" d="M193.46 390.397H191.937V450.479H193.46V390.397Z" fill="#3F3D56"/>
<path id="Vector_65" d="M207.518 398.054C207.615 419.063 192.812 436.163 192.812 436.163C192.812 436.163 177.852 419.2 177.755 398.191C177.658 377.181 192.461 360.081 192.461 360.081C192.461 360.081 207.421 377.044 207.518 398.054Z" fill="#6C63FF"/>
<path id="Vector_66" d="M345.791 390.397H344.267V450.479H345.791V390.397Z" fill="#3F3D56"/>
<path id="Vector_67" d="M359.849 398.054C359.946 419.063 345.143 436.163 345.143 436.163C345.143 436.163 330.183 419.2 330.086 398.191C329.989 377.181 344.792 360.081 344.792 360.081C344.792 360.081 359.752 377.044 359.849 398.054Z" fill="#6C63FF"/>
</g>
<g id="rtol">
<path id="Vector_68" d="M109.879 446.338L108.393 446.003C124.964 372.421 166.606 305.602 225.651 257.853C270.29 221.811 323.382 197.705 379.927 187.806C436.472 177.907 494.609 182.541 548.865 201.272C603.122 220.002 651.711 252.212 690.06 294.87C728.408 337.527 755.252 389.229 768.066 445.105L766.581 445.443C731.504 291.656 596.523 184.249 438.332 184.249C282.213 184.249 144.079 294.473 109.879 446.338Z" fill="#3F3D56"/>
<path id="Vector_69" d="M685.209 296.552C708.057 296.552 726.578 278.058 726.578 255.244C726.578 232.43 708.057 213.935 685.209 213.935C662.361 213.935 643.84 232.43 643.84 255.244C643.84 278.058 662.361 296.552 685.209 296.552Z" fill="#FF6584"/>
<path id="Vector_70" d="M669.493 390.397H667.97V450.479H669.493V390.397Z" fill="#3F3D56"/>
<path id="Vector_71" d="M683.552 398.054C683.649 419.063 668.846 436.163 668.846 436.163C668.846 436.163 653.886 419.2 653.789 398.191C653.692 377.181 668.495 360.081 668.495 360.081C668.495 360.081 683.455 377.044 683.552 398.054Z" fill="#6C63FF"/>
<path id="Vector_72" opacity="0.1" d="M683.552 398.054C683.649 419.063 668.846 436.163 668.846 436.163C668.846 436.163 653.886 419.2 653.789 398.191C653.692 377.181 668.495 360.081 668.495 360.081C668.495 360.081 683.455 377.044 683.552 398.054Z" fill="black"/>
<path id="Vector_73" opacity="0.4" d="M652.213 268.987C665.358 268.987 676.013 258.347 676.013 245.222C676.013 232.097 665.358 221.457 652.213 221.457C639.069 221.457 628.413 232.097 628.413 245.222C628.413 258.347 639.069 268.987 652.213 268.987Z" fill="#6C63FF"/>
<path id="Vector_74" d="M509.265 443.798C510.555 448.561 514.974 451.51 514.974 451.51C514.974 451.51 517.302 446.738 516.011 441.976C514.721 437.214 510.302 434.264 510.302 434.264C510.302 434.264 507.975 439.036 509.265 443.798Z" fill="#3F3D56"/>
<path id="Vector_75" d="M511.161 442.775C514.701 446.216 515.133 451.506 515.133 451.506C515.133 451.506 509.826 451.217 506.286 447.775C502.745 444.334 502.313 439.044 502.313 439.044C502.313 439.044 507.62 439.333 511.161 442.775Z" fill="#6C63FF"/>
<path id="Vector_76" d="M520.602 319.898L515.35 315.703L544.76 289.482H619.337V312.556L571.02 345.071L520.602 319.898Z" fill="#3F3D56"/>
<path id="Vector_77" d="M632.934 304.19V290.006H623.032V293.48L619.337 289.482L595.178 315.703L585.725 321.996L571.067 428.929L593.173 451.002H644.546V316.751L632.934 304.19Z" fill="#CCCCCC"/>
<path id="Vector_78" d="M595.178 315.703H515.35V451.003H595.178V315.703Z" fill="#F2F2F2"/>
<path id="Vector_79" d="M561.041 417.964H546.336V451.003H561.041V417.964Z" fill="#CCCCCC"/>
<path id="Vector_80" d="M530.58 427.404V422.16H524.278V427.404H530.055H530.58Z" fill="#3F3D56"/>
<path id="Vector_81" d="M530.055 431.599H524.278V436.844H530.58V431.599H530.055Z" fill="#3F3D56"/>
<path id="Vector_82" d="M541.084 422.16H534.782V427.404H541.084V422.16Z" fill="#3F3D56"/>
<path id="Vector_83" d="M541.084 431.599H534.782V436.843H541.084V431.599Z" fill="#3F3D56"/>
<path id="Vector_84" d="M573.646 427.404V422.16H567.344V427.404H573.121H573.646Z" fill="#3F3D56"/>
<path id="Vector_85" d="M573.121 431.599H567.344V436.844H573.646V431.599H573.121Z" fill="#3F3D56"/>
<path id="Vector_86" d="M584.149 422.16H577.847V427.404H584.149V422.16Z" fill="#3F3D56"/>
<path id="Vector_87" d="M584.149 431.599H577.847V436.843H584.149V431.599Z" fill="#3F3D56"/>
<path id="Vector_88" d="M617.761 322.52V317.276H611.459V322.52H617.236H617.761Z" fill="#3F3D56"/>
<path id="Vector_89" d="M617.236 326.716H611.459V331.96H617.761V326.716H617.236Z" fill="#3F3D56"/>
<path id="Vector_90" d="M628.265 317.276H621.963V322.52H628.265V317.276Z" fill="#3F3D56"/>
<path id="Vector_91" d="M628.265 326.716H621.963V331.96H628.265V326.716Z" fill="#3F3D56"/>
<path id="Vector_92" d="M617.761 351.888V346.643H611.459V351.888H617.236H617.761Z" fill="#3F3D56"/>
<path id="Vector_93" d="M617.236 356.083H611.459V361.327H617.761V356.083H617.236Z" fill="#3F3D56"/>
<path id="Vector_94" d="M628.265 346.644H621.963V351.888H628.265V346.644Z" fill="#3F3D56"/>
<path id="Vector_95" d="M628.265 356.083H621.963V361.327H628.265V356.083Z" fill="#3F3D56"/>
<path id="Vector_96" d="M617.761 381.255V376.011H611.459V381.255H617.236H617.761Z" fill="#3F3D56"/>
<path id="Vector_97" d="M617.236 385.45H611.459V390.694H617.761V385.45H617.236Z" fill="#3F3D56"/>
<path id="Vector_98" d="M628.265 376.011H621.963V381.255H628.265V376.011Z" fill="#3F3D56"/>
<path id="Vector_99" d="M628.265 385.45H621.963V390.695H628.265V385.45Z" fill="#3F3D56"/>
<path id="Vector_100" d="M617.761 410.623V405.378H611.459V410.623H617.236H617.761Z" fill="#3F3D56"/>
<path id="Vector_101" d="M617.236 414.818H611.459V420.062H617.761V414.818H617.236Z" fill="#3F3D56"/>
<path id="Vector_102" d="M628.265 405.378H621.963V410.622H628.265V405.378Z" fill="#3F3D56"/>
<path id="Vector_103" d="M628.265 414.818H621.963V420.062H628.265V414.818Z" fill="#3F3D56"/>
<path id="Vector_104" d="M585.2 322.52H524.278V335.106H585.2V322.52Z" fill="#3F3D56"/>
<path id="Vector_105" d="M585.2 347.692H524.278V360.278H585.2V347.692Z" fill="#3F3D56"/>
<path id="Vector_106" d="M585.2 372.864H524.278V385.45H585.2V372.864Z" fill="#3F3D56"/>
<path id="Vector_107" d="M585.2 398.036H524.278V410.622H585.2V398.036Z" fill="#3F3D56"/>
<path id="Vector_108" d="M688.927 319.898L683.675 315.703L713.086 289.482H787.662V312.556L739.345 345.071L688.927 319.898Z" fill="#3F3D56"/>
<path id="Vector_109" d="M801.259 304.19V290.006H791.358V293.48L787.662 289.482L763.503 315.703L754.051 321.996L739.393 428.929L761.498 451.002H812.872V316.751L801.259 304.19Z" fill="#CCCCCC"/>
<path id="Vector_110" d="M763.504 315.703H683.675V451.003H763.504V315.703Z" fill="#F2F2F2"/>
<path id="Vector_111" d="M729.366 417.964H714.661V451.003H729.366V417.964Z" fill="#CCCCCC"/>
<path id="Vector_112" d="M698.905 427.404V422.16H692.603V427.404H698.381H698.905Z" fill="#3F3D56"/>
<path id="Vector_113" d="M698.381 431.599H692.603V436.844H698.905V431.599H698.381Z" fill="#3F3D56"/>
<path id="Vector_114" d="M709.409 422.16H703.107V427.404H709.409V422.16Z" fill="#3F3D56"/>
<path id="Vector_115" d="M709.409 431.599H703.107V436.843H709.409V431.599Z" fill="#3F3D56"/>
<path id="Vector_116" d="M741.971 427.404V422.16H735.669V427.404H741.446H741.971Z" fill="#3F3D56"/>
<path id="Vector_117" d="M741.446 431.599H735.669V436.844H741.971V431.599H741.446Z" fill="#3F3D56"/>
<path id="Vector_118" d="M752.475 422.16H746.173V427.404H752.475V422.16Z" fill="#3F3D56"/>
<path id="Vector_119" d="M752.475 431.599H746.173V436.843H752.475V431.599Z" fill="#3F3D56"/>
<path id="Vector_120" d="M786.087 322.52V317.276H779.785V322.52H785.562H786.087Z" fill="#3F3D56"/>
<path id="Vector_121" d="M785.562 326.716H779.785V331.96H786.087V326.716H785.562Z" fill="#3F3D56"/>
<path id="Vector_122" d="M796.591 317.276H790.289V322.52H796.591V317.276Z" fill="#3F3D56"/>
<path id="Vector_123" d="M796.591 326.716H790.289V331.96H796.591V326.716Z" fill="#3F3D56"/>
<path id="Vector_124" d="M786.087 351.888V346.643H779.785V351.888H785.562H786.087Z" fill="#3F3D56"/>
<path id="Vector_125" d="M785.562 356.083H779.785V361.327H786.087V356.083H785.562Z" fill="#3F3D56"/>
<path id="Vector_126" d="M796.591 346.644H790.289V351.888H796.591V346.644Z" fill="#3F3D56"/>
<path id="Vector_127" d="M796.591 356.083H790.289V361.327H796.591V356.083Z" fill="#3F3D56"/>
<path id="Vector_128" d="M786.087 381.255V376.011H779.785V381.255H785.562H786.087Z" fill="#3F3D56"/>
<path id="Vector_129" d="M785.562 385.45H779.785V390.694H786.087V385.45H785.562Z" fill="#3F3D56"/>
<path id="Vector_130" d="M796.591 376.011H790.289V381.255H796.591V376.011Z" fill="#3F3D56"/>
<path id="Vector_131" d="M796.591 385.45H790.289V390.695H796.591V385.45Z" fill="#3F3D56"/>
<path id="Vector_132" d="M786.087 410.623V405.378H779.785V410.623H785.562H786.087Z" fill="#3F3D56"/>
<path id="Vector_133" d="M785.562 414.818H779.785V420.062H786.087V414.818H785.562Z" fill="#3F3D56"/>
<path id="Vector_134" d="M796.591 405.378H790.289V410.622H796.591V405.378Z" fill="#3F3D56"/>
<path id="Vector_135" d="M796.591 414.818H790.289V420.062H796.591V414.818Z" fill="#3F3D56"/>
<path id="Vector_136" d="M753.525 322.52H692.603V335.106H753.525V322.52Z" fill="#3F3D56"/>
<path id="Vector_137" d="M753.525 347.692H692.603V360.278H753.525V347.692Z" fill="#3F3D56"/>
<path id="Vector_138" d="M753.525 372.864H692.603V385.45H753.525V372.864Z" fill="#3F3D56"/>
<path id="Vector_139" d="M753.525 398.036H692.603V410.622H753.525V398.036Z" fill="#3F3D56"/>
<path id="Vector_140" d="M866 450.479H0V452H866V450.479Z" fill="#3F3D56"/>
<path id="Vector_141" d="M649.69 390.397H648.167V450.479H649.69V390.397Z" fill="#3F3D56"/>
<path id="Vector_142" d="M663.749 398.054C663.846 419.063 649.043 436.163 649.043 436.163C649.043 436.163 634.083 419.2 633.986 398.191C633.889 377.181 648.692 360.081 648.692 360.081C648.692 360.081 663.652 377.044 663.749 398.054Z" fill="#6C63FF"/>
</g>
<path id="Vector_143" d="M447.471 188.85C463.456 188.85 476.414 185.939 476.414 182.347C476.414 178.756 463.456 175.845 447.471 175.845C431.487 175.845 418.529 178.756 418.529 182.347C418.529 185.939 431.487 188.85 447.471 188.85Z" fill="#6C63FF"/>
<g id="Nav">
<path id="Vector_144" d="M480.223 91.4635C480.223 109.945 446.71 162.193 446.71 162.193C446.71 162.193 413.197 109.945 413.197 91.4635C413.197 82.5884 416.728 74.0769 423.013 67.8012C429.298 61.5256 437.822 58 446.71 58C455.598 58 464.122 61.5256 470.407 67.8012C476.692 74.0769 480.223 82.5884 480.223 91.4635Z" fill="#6C63FF"/>
<path id="Vector_145" d="M446.71 110.477C457.226 110.477 465.751 101.964 465.751 91.4635C465.751 80.9627 457.226 72.4502 446.71 72.4502C436.194 72.4502 427.668 80.9627 427.668 91.4635C427.668 101.964 436.194 110.477 446.71 110.477Z" fill="#F2F2F2"/>
</g>
<g id="Group 3">
<path id="Vector_146" d="M644.671 140.658L640.009 114.621L654.773 113.901V140.658H664.875L674.977 111.904" stroke="#B3B3B3" stroke-miterlimit="10"/>
<path id="Vector_147" d="M661.775 137.935H647.77C640.479 137.935 634.568 143.846 634.568 151.138V153.488C634.568 160.779 640.479 166.69 647.77 166.69H661.775C669.067 166.69 674.977 160.779 674.977 153.488V151.138C674.977 143.846 669.067 137.935 661.775 137.935Z" fill="#6C63FF"/>
<path id="Vector_148" opacity="0.05" d="M660.992 137.935H649.337C645.528 137.947 641.877 139.465 639.184 142.159C636.49 144.853 634.971 148.503 634.96 152.313V152.313C634.96 152.642 634.96 152.961 634.999 153.28C635.255 149.648 636.876 146.248 639.535 143.761C642.195 141.275 645.696 139.886 649.337 139.875H660.992C664.633 139.886 668.134 141.275 670.794 143.761C673.453 146.248 675.074 149.648 675.33 153.28C675.33 152.961 675.369 152.637 675.369 152.313C675.358 148.503 673.839 144.853 671.145 142.159C668.452 139.465 664.801 137.947 660.992 137.935V137.935Z" fill="black"/>
<path id="Vector_149" d="M716.073 60.1204C716.073 93.324 688.334 120.241 658.801 120.241C629.268 120.241 599 93.324 599 60.1204C599 26.9168 629.268 0 658.806 0C688.344 0 716.073 26.9168 716.073 60.1204Z" fill="url(#paint0_linear)"/>
<path id="Vector_150" d="M713.331 60.1203C713.331 91.7716 686.893 117.426 658.738 117.426C630.584 117.426 601.732 91.7716 601.732 60.1203C601.732 28.4691 630.593 2.8338 658.743 2.8338C686.893 2.8338 713.331 28.4643 713.331 60.1203Z" fill="#6C63FF"/>
<path id="Vector_151" d="M662.66 119.438H649.995V123.863H662.66V119.438Z" fill="#6C63FF"/>
<g id="Group" opacity="0.2">
<path id="Vector_152" opacity="0.2" d="M658.743 2.61621C658.071 2.61621 657.404 2.61621 656.731 2.66457C684.117 3.84937 709.313 29.0253 709.313 59.9221C709.313 90.8189 684.117 115.995 656.751 117.18C657.423 117.209 658.095 117.228 658.763 117.228C686.913 117.228 713.355 91.5733 713.355 59.9221C713.355 28.2709 686.893 2.61621 658.743 2.61621Z" fill="black"/>
</g>
<g id="Group_2" opacity="0.2">
<path id="Vector_153" opacity="0.2" d="M604.958 60.1203C604.958 28.9237 633.006 3.53985 660.755 2.8338C660.354 2.8338 659.952 2.8338 659.551 2.8338C631.401 2.8338 602.545 28.4885 602.545 60.1397C602.545 91.7909 631.396 117.446 659.546 117.446C659.947 117.446 660.349 117.446 660.75 117.446C632.992 116.691 604.958 91.3315 604.958 60.1203Z" fill="white"/>
</g>
<path id="Vector_154" d="M675.132 109.384H638.737V121.247H675.132V109.384Z" fill="#6C63FF"/>
<path id="Vector_155" opacity="0.2" d="M638.737 6.98787C638.737 6.98787 595.508 56.4015 638.737 113.253L653.013 113.204C653.013 113.204 613.604 66.2378 651.204 3.42862L644.177 5.02931L638.737 6.98787Z" fill="white"/>
<path id="Vector_156" opacity="0.2" d="M676.336 6.21901C676.336 6.21901 719.565 56.387 676.336 113.238L662.061 113.19C662.061 113.19 701.469 65.7978 663.869 3.00311L670.905 4.41037L676.336 6.21901Z" fill="white"/>
</g>
</g>
<defs>
<linearGradient id="paint0_linear" x1="107209" y1="54442.6" x2="107209" y2="24546" gradientUnits="userSpaceOnUse">
<stop stop-color="#808080" stop-opacity="0.25"/>
<stop offset="0.54" stop-color="#808080" stop-opacity="0.12"/>
<stop offset="1" stop-color="#808080" stop-opacity="0.1"/>
</linearGradient>
</defs>
</svg>
