<svg width="118" height="167" viewBox="0 0 118 167" fill="none" xmlns="http://www.w3.org/2000/svg">
<path d="M45.6706 140.658L41.0088 114.621L55.7729 113.901V140.658H65.8752L75.9775 111.904" stroke="#B3B3B3" stroke-miterlimit="10"/>
<path d="M62.7754 137.935H48.7705C41.4791 137.935 35.5684 143.846 35.5684 151.138V153.488C35.5684 160.779 41.4791 166.69 48.7705 166.69H62.7754C70.0667 166.69 75.9775 160.779 75.9775 153.488V151.138C75.9775 143.846 70.0667 137.935 62.7754 137.935Z" fill="#6C63FF"/>
<path opacity="0.05" d="M61.9918 137.935H50.3372C46.5276 137.947 42.8774 139.465 40.1836 142.159C37.4899 144.853 35.9714 148.503 35.96 152.313C35.96 152.642 35.96 152.961 35.9987 153.28C36.255 149.648 37.8757 146.248 40.5352 143.761C43.1948 141.275 46.6964 139.886 50.3372 139.875H61.9918C65.6326 139.886 69.1343 141.275 71.7938 143.761C74.4534 146.248 76.074 149.648 76.3304 153.28C76.3304 152.961 76.3691 152.637 76.3691 152.313C76.3576 148.503 74.8392 144.853 72.1454 142.159C69.4516 139.465 65.8014 137.947 61.9918 137.935Z" fill="black"/>
<path d="M117.073 60.1204C117.073 93.324 89.3343 120.241 59.8012 120.241C30.2681 120.241 0 93.324 0 60.1204C0 26.9168 30.2681 0 59.8061 0C89.344 0 117.073 26.9168 117.073 60.1204Z" fill="url(#paint0_linear)"/>
<path d="M114.331 60.1203C114.331 91.7715 87.8933 117.426 59.7385 117.426C31.5836 117.426 2.73242 91.7715 2.73242 60.1203C2.73242 28.4691 31.5933 2.83374 59.7433 2.83374C87.8933 2.83374 114.331 28.4642 114.331 60.1203Z" fill="#6C63FF"/>
<path d="M63.6604 119.438H50.9951V123.863H63.6604V119.438Z" fill="#6C63FF"/>
<g opacity="0.2">
<path opacity="0.2" d="M59.7432 2.61621C59.071 2.61621 58.4036 2.61621 57.7314 2.66457C85.1174 3.84937 110.313 29.0253 110.313 59.9221C110.313 90.8189 85.1174 115.995 57.7508 117.18C58.423 117.209 59.0952 117.228 59.7625 117.228C87.9125 117.228 114.355 91.5733 114.355 59.9221C114.355 28.2709 87.8932 2.61621 59.7432 2.61621Z" fill="black"/>
</g>
<g opacity="0.2">
<path opacity="0.2" d="M5.95808 60.1203C5.95808 28.9236 34.0065 3.53979 61.7552 2.83374C61.3538 2.83374 60.9524 2.83374 60.551 2.83374C32.401 2.83374 3.54492 28.4884 3.54492 60.1396C3.54492 91.7908 32.3962 117.446 60.5462 117.446C60.9476 117.446 61.3489 117.446 61.7503 117.446C33.992 116.691 5.95808 91.3314 5.95808 60.1203Z" fill="white"/>
</g>
<path d="M76.1326 109.384H39.7373V121.247H76.1326V109.384Z" fill="#6C63FF"/>
<path opacity="0.2" d="M39.7371 6.98784C39.7371 6.98784 -3.4914 56.4015 39.7371 113.253L54.0128 113.204C54.0128 113.204 14.6047 66.2378 52.2041 3.42859L45.1775 5.02928L39.7371 6.98784Z" fill="white"/>
<path opacity="0.2" d="M77.3362 6.21895C77.3362 6.21895 120.565 56.387 77.3362 113.238L63.0605 113.19C63.0605 113.19 102.469 65.7977 64.8692 3.00305L71.9055 4.4103L77.3362 6.21895Z" fill="white"/>
<defs>
<linearGradient id="paint0_linear" x1="106610" y1="54442.6" x2="106610" y2="24546" gradientUnits="userSpaceOnUse">
<stop stop-color="#808080" stop-opacity="0.25"/>
<stop offset="0.54" stop-color="#808080" stop-opacity="0.12"/>
<stop offset="1" stop-color="#808080" stop-opacity="0.1"/>
</linearGradient>
</defs>
</svg>
