<svg width="156" height="156" viewBox="0 0 156 156" fill="none" xmlns="http://www.w3.org/2000/svg">
<path d="M35.9987 102.75V126.516C35.9987 127.082 36.2234 127.624 36.6233 128.024C37.0233 128.424 37.5658 128.649 38.1315 128.649H79.569C80.1346 128.649 80.6771 128.424 81.0771 128.024C81.4771 127.624 81.7018 127.082 81.7018 126.516V102.75C81.7019 102.47 81.6469 102.193 81.5398 101.934C81.4326 101.675 81.2755 101.44 81.0774 101.242C80.8794 101.044 80.6442 100.887 80.3853 100.78C80.1265 100.673 79.8491 100.618 79.569 100.618H38.1315C37.8513 100.618 37.5739 100.673 37.3151 100.78C37.0563 100.887 36.8211 101.044 36.623 101.242C36.4249 101.44 36.2678 101.675 36.1607 101.934C36.0536 102.193 35.9985 102.47 35.9987 102.75ZM40.2643 104.883H77.4361V124.383H40.2643V104.883Z" fill="black"/>
<path d="M44.2252 46.8206C43.6596 46.8206 43.1171 47.0453 42.7171 47.4452C42.3171 47.8452 42.0924 48.3877 42.0924 48.9534C42.0924 49.519 42.3171 50.0615 42.7171 50.4615C43.1171 50.8615 43.6596 51.0862 44.2252 51.0862H73.4752C74.0408 51.0862 74.5833 50.8615 74.9833 50.4615C75.3833 50.0615 75.608 49.519 75.608 48.9534C75.608 48.3877 75.3833 47.8452 74.9833 47.4452C74.5833 47.0453 74.0408 46.8206 73.4752 46.8206H44.2252Z" fill="black"/>
<path d="M44.2252 60.6328H73.4752C74.0408 60.6328 74.5833 60.4081 74.9833 60.0081C75.3833 59.6081 75.608 59.0657 75.608 58.5C75.608 57.9343 75.3833 57.3919 74.9833 56.9919C74.5833 56.5919 74.0408 56.3672 73.4752 56.3672H44.2252C43.6596 56.3672 43.1171 56.5919 42.7171 56.9919C42.3171 57.3919 42.0924 57.9343 42.0924 58.5C42.0924 59.0657 42.3171 59.6081 42.7171 60.0081C43.1171 60.4081 43.6596 60.6328 44.2252 60.6328Z" fill="black"/>
<path d="M44.2252 70.1794H73.4752C73.7553 70.1794 74.0326 70.1243 74.2914 70.0171C74.5501 69.9099 74.7852 69.7528 74.9833 69.5548C75.1813 69.3567 75.3384 69.1216 75.4456 68.8628C75.5528 68.6041 75.608 68.3267 75.608 68.0466C75.608 67.7665 75.5528 67.4892 75.4456 67.2304C75.3384 66.9717 75.1813 66.7366 74.9833 66.5385C74.7852 66.3405 74.5501 66.1834 74.2914 66.0762C74.0326 65.969 73.7553 65.9138 73.4752 65.9138H44.2252C43.6596 65.9138 43.1171 66.1385 42.7171 66.5385C42.3171 66.9385 42.0924 67.481 42.0924 68.0466C42.0924 68.6123 42.3171 69.1548 42.7171 69.5548C43.1171 69.9547 43.6596 70.1794 44.2252 70.1794Z" fill="black"/>
<path d="M149.288 29.3304C149.003 29.1345 148.675 29.0107 148.332 28.9695C147.989 28.9283 147.641 28.971 147.318 29.094L136.901 33.0671H132.227C129.404 26.0142 122.217 15.1832 104.298 11.7743C94.0812 9.78507 83.5359 10.2804 73.5503 13.2186V7.92188C73.55 7.35653 73.3254 6.81441 72.9257 6.41454C72.5261 6.01466 71.9841 5.78971 71.4188 5.78906H46.2808C45.7153 5.78939 45.173 6.0142 44.773 6.41411C44.3731 6.81402 44.1483 7.35632 44.148 7.92188V27.3488H40.7355C36.4371 27.3438 32.3015 28.9927 29.1858 31.9539C26.0701 34.9151 24.2131 38.9615 23.9996 43.2547L20.6505 108.62C19.237 107.625 17.5772 107.037 15.8525 106.922C14.1277 106.806 12.4043 107.166 10.8705 107.964C9.33677 108.761 8.05162 109.964 7.15547 111.443C6.25932 112.921 5.78664 114.617 5.78907 116.346V140.766C5.7875 142.628 6.33714 144.45 7.36877 146.001C8.40039 147.552 9.86787 148.763 11.5864 149.481C13.3049 150.2 15.1976 150.394 17.0261 150.039C18.8546 149.683 20.5372 148.795 21.8619 147.486C23.6193 149.222 25.9873 150.201 28.4578 150.211H89.2369C91.7085 150.2 94.0775 149.221 95.8352 147.483C97.1597 148.793 98.8422 149.682 100.671 150.037C102.499 150.392 104.392 150.199 106.111 149.48C107.829 148.762 109.297 147.551 110.329 146.001C111.361 144.45 111.911 142.628 111.909 140.766V116.346C111.912 114.617 111.439 112.921 110.543 111.442C109.646 109.964 108.361 108.761 106.827 107.964C105.293 107.166 103.57 106.806 101.845 106.922C100.12 107.038 98.46 107.626 97.0466 108.621L93.7073 43.2534C93.4876 38.9613 91.6276 34.9176 88.5116 31.9577C85.3957 28.9978 81.2618 27.3478 76.9641 27.3488H73.5516V17.734C83.2305 14.6554 93.5259 14.0474 103.5 15.9656C118.147 18.7529 124.681 26.9685 127.568 33.0683H126.326C125.76 33.0687 125.218 33.2935 124.818 33.6934C124.418 34.0933 124.193 34.6356 124.193 35.2012V59.7188C124.194 60.2304 124.379 60.7246 124.715 61.1107C125.051 61.4968 125.515 61.749 126.021 61.8211V128.609C125.529 128.678 125.077 128.917 124.743 129.285C124.409 129.653 124.215 130.126 124.193 130.622L123.462 147.986C123.45 148.273 123.496 148.56 123.598 148.828C123.699 149.097 123.854 149.343 124.053 149.551C124.252 149.758 124.491 149.923 124.756 150.036C125.02 150.149 125.305 150.207 125.592 150.207H138.023C138.311 150.208 138.595 150.15 138.86 150.037C139.124 149.925 139.363 149.76 139.563 149.553C139.762 149.346 139.917 149.1 140.019 148.832C140.121 148.563 140.168 148.276 140.156 147.989L139.425 130.626C139.403 130.129 139.209 129.656 138.875 129.289C138.541 128.921 138.089 128.682 137.597 128.612V61.8247C138.104 61.7531 138.569 61.5005 138.905 61.1135C139.241 60.7265 139.425 60.2312 139.425 59.7188V43.4521L148.374 42.187C148.882 42.1137 149.346 41.8598 149.682 41.4719C150.018 41.084 150.203 40.588 150.202 40.0749V31.0867C150.203 30.7419 150.121 30.402 149.961 30.0961C149.802 29.7903 149.571 29.5275 149.288 29.3304ZM48.4136 10.0547H69.2847V14.753C62.1355 17.7328 57.0607 22.1374 54.7499 27.3488H48.4124L48.4136 10.0547ZM15.2344 145.945C13.8611 145.944 12.5446 145.397 11.5736 144.426C10.6025 143.455 10.0563 142.139 10.0547 140.766V116.346C10.0547 114.972 10.6004 113.654 11.5718 112.683C12.5432 111.712 13.8606 111.166 15.2344 111.166C16.6081 111.166 17.9256 111.712 18.897 112.683C19.8684 113.654 20.4141 114.972 20.4141 116.346V140.766C20.4125 142.139 19.8662 143.455 18.8952 144.426C17.9242 145.397 16.6076 145.944 15.2344 145.945ZM102.464 111.166C103.837 111.167 105.154 111.714 106.125 112.685C107.096 113.656 107.642 114.972 107.644 116.346V140.766C107.644 142.139 107.098 143.457 106.127 144.428C105.155 145.4 103.838 145.945 102.464 145.945C101.09 145.945 99.7728 145.4 98.8014 144.428C97.83 143.457 97.2843 142.139 97.2843 140.766V116.346C97.2859 114.972 97.8321 113.656 98.8032 112.685C99.7742 111.714 101.091 111.167 102.464 111.166ZM89.4465 43.4716L93.1125 115.111C93.0559 115.52 93.0257 115.932 93.0223 116.346V140.766C93.0236 141.764 93.1836 142.756 93.4964 143.704C93.0212 144.394 92.3857 144.958 91.6445 145.349C90.9032 145.739 90.0783 145.944 89.2405 145.945H28.4578C27.6208 145.943 26.7968 145.738 26.0562 145.348C25.3157 144.958 24.6807 144.394 24.2056 143.705C24.5184 142.757 24.6784 141.764 24.6797 140.766V116.346C24.6764 115.931 24.6459 115.517 24.5883 115.106L28.2592 43.4692C28.4187 40.27 29.8027 37.2547 32.1243 35.0479C34.446 32.841 37.5275 31.6117 40.7306 31.6144H46.2516H46.2808H71.4188H71.448H76.9641C80.1679 31.6142 83.2495 32.8444 85.5724 35.051C87.8953 37.2576 89.2822 40.2719 89.4465 43.4716ZM59.5652 27.3488C61.9935 23.8432 65.3627 21.095 69.2847 19.4208V27.3488H59.5652ZM130.284 128.578V61.8516H133.331V128.578H130.284ZM135.159 41.5947V57.5859H128.456V37.3328H135.159V41.5947ZM127.821 145.942L128.37 132.844H135.248L135.797 145.942H127.821ZM145.945 38.2224L139.427 39.1438V36.6697L145.945 34.1835V38.2224Z" fill="black"/>
</svg>
