<svg width="156" height="156" viewBox="0 0 156 156" fill="none" xmlns="http://www.w3.org/2000/svg">
<path d="M33.9718 146.25H12.1878C11.5414 146.25 10.9214 145.993 10.4643 145.536C10.0071 145.079 9.75032 144.459 9.75032 143.813C9.75126 143.377 9.87033 142.95 10.0948 142.577C10.3193 142.204 10.6409 141.899 11.0251 141.694C11.3696 141.506 11.6634 141.237 11.8816 140.91C12.0997 140.584 12.2358 140.21 12.2781 139.819C12.3205 139.429 12.2679 139.034 12.1249 138.668C11.9818 138.303 11.7526 137.977 11.4566 137.719C10.9241 137.27 10.4957 136.71 10.201 136.078C9.90639 135.447 9.75261 134.759 9.75032 134.063C9.75594 132.819 10.2378 131.625 11.0969 130.725C11.956 129.826 13.1269 129.29 14.369 129.228C15.611 129.165 16.8298 129.581 17.7747 130.39C18.7196 131.198 19.3188 132.338 19.4491 133.575C19.4827 133.735 19.4999 133.899 19.5003 134.063C19.5003 134.709 19.7571 135.329 20.2142 135.786C20.6714 136.243 21.2914 136.5 21.9378 136.5C22.9 136.502 23.8391 136.795 24.6313 137.341C24.896 137.521 25.1936 137.647 25.507 137.712C25.8205 137.777 26.1437 137.78 26.4582 137.72C26.7727 137.66 27.0724 137.539 27.34 137.363C27.6077 137.188 27.8381 136.961 28.0182 136.696C28.1982 136.432 28.3244 136.134 28.3894 135.82C28.4545 135.507 28.4571 135.184 28.3973 134.869C28.3374 134.555 28.2162 134.255 28.0405 133.987C27.8648 133.72 27.6382 133.489 27.3734 133.309C26.3788 132.63 25.2661 132.142 24.0926 131.871C23.56 129.537 22.1854 127.481 20.2317 126.096C18.278 124.712 15.8824 124.096 13.5034 124.367C11.1243 124.639 8.9288 125.778 7.33694 127.566C5.74507 129.355 4.86864 131.668 4.87532 134.063C4.87768 135.929 5.42127 137.754 6.4402 139.318C5.59162 140.394 5.0637 141.689 4.917 143.052C4.7703 144.415 5.01075 145.791 5.61078 147.024C6.21081 148.257 7.14611 149.295 8.30942 150.021C9.47272 150.746 10.8169 151.129 12.1878 151.125H33.9718C34.6182 151.125 35.2382 150.868 35.6953 150.411C36.1525 149.954 36.4093 149.334 36.4093 148.688C36.4093 148.041 36.1525 147.421 35.6953 146.964C35.2382 146.507 34.6182 146.25 33.9718 146.25Z" fill="black"/>
<path d="M93.7148 146.506L86.646 142.974C83.3084 141.319 80.5012 138.762 78.5423 135.593C76.5834 132.424 75.5512 128.769 75.5627 125.044C75.5761 121.353 74.6964 117.714 72.9986 114.438C71.3008 111.161 68.8353 108.344 65.8127 106.226V97.5C65.8127 95.5606 65.0423 93.7007 63.6709 92.3293C62.2996 90.9579 60.4396 90.1875 58.5002 90.1875H51.1877V12.1875C51.1877 11.541 51.4445 10.921 51.9016 10.4639C52.3587 10.0068 52.9787 9.75 53.6252 9.75C54.2717 9.75 54.8917 10.0068 55.3488 10.4639C55.8059 10.921 56.0627 11.541 56.0627 12.1875V82.875C56.0627 83.5215 56.3195 84.1415 56.7766 84.5986C57.2337 85.0557 57.8537 85.3125 58.5002 85.3125C59.1467 85.3125 59.7667 85.0557 60.2238 84.5986C60.6809 84.1415 60.9377 83.5215 60.9377 82.875V12.1875C60.9377 10.2481 60.1673 8.38814 58.7959 7.01678C57.4246 5.64542 55.5646 4.875 53.6252 4.875C51.6858 4.875 49.8258 5.64542 48.4545 7.01678C47.0831 8.38814 46.3127 10.2481 46.3127 12.1875V90.636C44.8919 91.1383 43.6609 92.0674 42.7883 93.2961C41.9157 94.5247 41.4439 95.993 41.4377 97.5V106.131C38.5666 108.036 36.1849 110.59 34.486 113.588C32.4674 117.295 31.5064 121.487 31.7081 125.704C31.9097 129.921 33.2661 134.001 35.6291 137.499C35.7897 137.787 36.0068 138.038 36.2672 138.239C36.5277 138.44 36.8261 138.586 37.1446 138.669C37.463 138.752 37.7949 138.769 38.1202 138.72C38.4455 138.671 38.7575 138.556 39.0374 138.383C39.3173 138.21 39.5593 137.983 39.7488 137.714C39.9383 137.445 40.0715 137.14 40.1402 136.819C40.2089 136.497 40.2118 136.165 40.1487 135.842C40.0856 135.519 39.9577 135.212 39.7729 134.94C38.2766 132.683 37.2823 130.131 36.8572 127.456C36.432 124.782 36.586 122.047 37.3086 119.438H46.3127V124.313C46.3127 124.959 46.5695 125.579 47.0266 126.036C47.4837 126.493 48.1037 126.75 48.7502 126.75C49.3967 126.75 50.0167 126.493 50.4738 126.036C50.9309 125.579 51.1877 124.959 51.1877 124.313V119.438H56.0627V124.313C56.0627 124.959 56.3195 125.579 56.7766 126.036C57.2337 126.493 57.8537 126.75 58.5002 126.75C59.1467 126.75 59.7667 126.493 60.2238 126.036C60.6809 125.579 60.9377 124.959 60.9377 124.313V119.438H69.8053C70.388 121.249 70.6857 123.141 70.6877 125.044C70.6747 129.244 71.7304 133.378 73.7554 137.057C75.7805 140.737 78.7083 143.841 82.2634 146.077C78.6009 145.706 75.0697 144.512 71.9335 142.584C68.7974 140.657 66.1375 138.045 64.1528 134.945C63.7998 134.425 63.2599 134.062 62.6455 133.931C62.0312 133.799 61.3899 133.91 60.8555 134.241C60.321 134.571 59.9346 135.094 59.7769 135.702C59.6192 136.311 59.7024 136.956 60.009 137.504C62.0311 140.761 64.702 143.566 67.8553 145.745C64.6114 145.122 61.5291 143.843 58.7975 141.985C56.0659 140.128 53.7426 137.732 51.9701 134.945C51.6172 134.425 51.0772 134.062 50.4629 133.931C49.8486 133.799 49.2073 133.91 48.6728 134.241C48.1384 134.571 47.752 135.094 47.5943 135.702C47.4366 136.311 47.5197 136.956 47.8264 137.504C49.8571 140.761 52.5392 143.563 55.7044 145.733C51.951 144.999 48.4157 143.414 45.3694 141.102C45.1154 140.907 44.8255 140.764 44.5162 140.681C44.207 140.598 43.8844 140.577 43.567 140.619C43.2495 140.661 42.9434 140.764 42.6661 140.925C42.3888 141.085 42.1457 141.298 41.9508 141.552C41.7559 141.806 41.6129 142.096 41.53 142.405C41.4471 142.714 41.4259 143.037 41.4676 143.354C41.5094 143.672 41.6133 143.978 41.7733 144.255C41.9334 144.532 42.1465 144.775 42.4005 144.97C47.69 148.978 54.1479 151.14 60.7841 151.125H92.6252C93.1793 151.131 93.7189 150.949 94.1552 150.607C94.5915 150.265 94.8984 149.785 95.0253 149.246C95.1522 148.706 95.0915 148.14 94.8533 147.64C94.6151 147.139 94.2135 146.735 93.7148 146.494V146.506ZM46.3127 97.5C46.3127 96.8535 46.5695 96.2336 47.0266 95.7764C47.4837 95.3193 48.1037 95.0625 48.7502 95.0625H58.5002C59.1467 95.0625 59.7667 95.3193 60.2238 95.7764C60.6809 96.2336 60.9377 96.8535 60.9377 97.5V103.699C58.6351 102.843 56.201 102.395 53.7446 102.375H53.6252C51.131 102.39 48.6577 102.832 46.3127 103.682V97.5ZM39.6583 114.563C41.2266 112.31 43.3151 110.469 45.7466 109.196C48.178 107.923 50.8807 107.256 53.6252 107.25H53.7178C56.4122 107.287 59.0583 107.971 61.4336 109.243C63.8089 110.516 65.844 112.34 67.3678 114.563H39.6583Z" fill="black"/>
<path d="M143.552 136.5H142.474C141.621 135.022 140.396 133.795 138.92 132.939C137.443 132.084 135.769 131.631 134.063 131.625C132.708 131.624 131.369 131.912 130.133 132.468C129.072 131.926 127.896 131.648 126.704 131.658C125.513 131.668 124.341 131.965 123.289 132.524L123.633 128.593C123.969 128.605 124.32 128.656 124.651 128.656C125.272 128.656 125.882 128.632 126.482 128.583C131.601 128.169 135.32 126.011 136.929 122.516C139.757 116.371 135.123 108.291 125.868 102.877L126.75 92.8346C126.779 92.4865 126.732 92.1363 126.611 91.8084C126.706 91.2733 126.752 90.7309 126.75 90.1875C126.746 88.4635 126.284 86.7715 125.412 85.2845C124.54 83.7976 123.288 82.569 121.785 81.7245C121.569 80.3859 120.987 79.1332 120.102 78.1056C119.217 77.0781 118.065 76.3159 116.773 75.9038C116.352 73.9769 115.354 72.2237 113.913 70.8768C112.472 69.5299 110.656 68.6529 108.705 68.3621C106.754 68.0712 104.76 68.3803 102.989 69.2484C101.218 70.1164 99.7525 71.5024 98.7871 73.2225C98.3609 73.1607 97.9309 73.1281 97.5001 73.125C95.2952 73.129 93.1567 73.8803 91.4338 75.2562C89.7108 76.6321 88.5051 78.5514 88.0134 80.7008C87.7843 80.7544 87.5673 80.8397 87.3455 80.9104C86.4462 79.9892 85.3719 79.2572 84.1855 78.7574C82.9992 78.2576 81.7249 78.0001 80.4376 78C78.5527 77.9951 76.707 78.5381 75.1251 79.5631C73.5432 80.5881 72.2934 82.0507 71.5276 83.7731C70.7619 85.4954 70.5132 87.4033 70.812 89.2643C71.1108 91.1254 71.9441 92.8596 73.2104 94.2557C73.2446 94.2922 73.2933 94.3044 73.3274 94.341L77.5955 127.064C77.6718 127.651 77.959 128.19 78.4035 128.581C78.8479 128.971 79.4193 129.187 80.0111 129.188C80.1178 129.188 80.2245 129.182 80.3304 129.168C80.9709 129.084 81.5517 128.748 81.9452 128.236C82.3387 127.724 82.5128 127.076 82.4291 126.436L78.3389 95.0625H81.7929C82.5074 96.3189 83.495 97.3989 84.6828 98.2226C85.8706 99.0463 87.2282 99.5927 88.6554 99.8215C90.0826 100.05 91.5429 99.9557 92.9286 99.5446C94.3144 99.1335 95.5901 98.4165 96.6616 97.4464C97.6889 97.5715 98.7311 97.4771 99.7192 97.1695C100.707 96.8618 101.619 96.348 102.394 95.6618C103.168 94.9757 103.789 94.1329 104.214 93.1892C104.638 92.2455 104.858 91.2224 104.858 90.1875C104.858 89.1526 104.638 88.1295 104.214 87.1858C103.789 86.2421 103.168 85.3993 102.394 84.7132C101.619 84.027 100.707 83.5132 99.7192 83.2055C98.7311 82.8979 97.6889 82.8035 96.6616 82.9286C95.6297 82.0131 94.4138 81.3291 93.0956 80.9226C93.6086 79.7808 94.5394 78.8788 95.6967 78.4019C96.854 77.925 98.15 77.9094 99.3185 78.3583C99.6378 78.4866 99.9807 78.5459 100.325 78.5322C100.668 78.5185 101.006 78.4321 101.314 78.2787C101.622 78.1254 101.894 77.9085 102.112 77.6424C102.33 77.3764 102.49 77.0671 102.58 76.7349C102.892 75.6038 103.603 74.6239 104.582 73.9762C105.56 73.3284 106.74 73.0565 107.903 73.2107C109.067 73.3649 110.135 73.9347 110.911 74.815C111.687 75.6953 112.118 76.8266 112.125 78C112.125 78.6465 112.382 79.2665 112.839 79.7236C113.296 80.1807 113.916 80.4375 114.563 80.4375C115.2 80.4374 115.813 80.6871 116.268 81.1332C116.724 81.5793 116.987 82.1863 117 82.8238L116.966 83.1114C116.922 83.6498 117.058 84.1875 117.353 84.6402C117.647 85.0928 118.084 85.4348 118.594 85.6123C119.547 85.942 120.374 86.559 120.962 87.3784C121.549 88.1978 121.869 89.1792 121.875 90.1875H111.45C110.803 90.1875 110.183 90.4443 109.726 90.9014C109.269 91.3585 109.012 91.9785 109.012 92.625C109.012 93.2715 109.269 93.8915 109.726 94.3486C110.183 94.8057 110.803 95.0625 111.45 95.0625H121.653L120.876 104.013L119.218 123.064C117.229 122.598 115.29 121.935 113.432 121.085C104.298 116.881 99.8109 109.873 101.488 106.199C101.758 105.612 101.784 104.942 101.56 104.335C101.336 103.729 100.88 103.236 100.292 102.966C99.705 102.696 99.0344 102.67 98.428 102.894C97.8216 103.118 97.3292 103.574 97.0589 104.162C93.9146 110.987 100.206 120.369 111.382 125.512C113.754 126.601 116.239 127.425 118.792 127.969L118.09 136.069C117.36 136.345 116.586 136.491 115.806 136.5H114.563C111.977 136.5 109.497 137.527 107.668 139.356C105.84 141.184 104.813 143.664 104.813 146.25V148.687C104.813 149.334 105.069 149.954 105.527 150.411C105.984 150.868 106.604 151.125 107.25 151.125H119.438C120.084 151.125 120.704 150.868 121.161 150.411C121.618 149.954 121.875 149.334 121.875 148.687C121.875 148.041 121.618 147.421 121.161 146.964C120.704 146.507 120.084 146.25 119.438 146.25H109.688C109.688 144.957 110.201 143.717 111.115 142.803C112.03 141.889 113.27 141.375 114.563 141.375H115.806C117.543 141.331 119.254 140.941 120.838 140.226C122.422 139.511 123.847 138.486 125.029 137.212C125.467 136.769 126.06 136.514 126.683 136.501C127.306 136.487 127.909 136.716 128.366 137.139C128.772 137.503 129.288 137.721 129.832 137.758C130.375 137.794 130.916 137.648 131.367 137.341C132.161 136.797 133.1 136.504 134.063 136.5C135.066 136.506 136.044 136.822 136.861 137.404C137.679 137.987 138.297 138.807 138.631 139.754C138.799 140.228 139.11 140.639 139.521 140.929C139.933 141.219 140.423 141.375 140.927 141.375H143.552C144.159 141.353 144.756 141.54 145.241 141.907C145.726 142.273 146.069 142.796 146.214 143.386C146.276 143.737 146.261 144.097 146.169 144.441C146.077 144.785 145.911 145.105 145.682 145.378C145.453 145.651 145.167 145.871 144.844 146.022C144.521 146.172 144.169 146.25 143.813 146.25H129.188C128.541 146.25 127.921 146.507 127.464 146.964C127.007 147.421 126.75 148.041 126.75 148.687C126.75 149.334 127.007 149.954 127.464 150.411C127.921 150.868 128.541 151.125 129.188 151.125H143.813C144.876 151.126 145.928 150.894 146.893 150.447C147.858 149.999 148.714 149.347 149.401 148.535C150.088 147.722 150.589 146.77 150.87 145.744C151.151 144.718 151.205 143.643 151.028 142.594C150.694 140.863 149.762 139.304 148.396 138.19C147.029 137.076 145.315 136.478 143.552 136.5ZM76.2549 90.1875C75.802 89.4552 75.5623 88.6111 75.5626 87.75C75.5626 86.4571 76.0762 85.2171 76.9905 84.3029C77.9047 83.3886 79.1447 82.875 80.4376 82.875C81.3501 82.8828 82.2414 83.1509 83.0068 83.6477C81.3615 85.4289 80.4446 87.7627 80.4376 90.1875H76.2549ZM96.6763 87.9109C96.9393 87.8092 97.2182 87.7548 97.5001 87.75C98.1466 87.75 98.7666 88.0068 99.2237 88.4639C99.6808 88.921 99.9376 89.541 99.9376 90.1875C99.9376 90.834 99.6808 91.454 99.2237 91.9111C98.7666 92.3682 98.1466 92.625 97.5001 92.625C97.2182 92.6202 96.9393 92.5658 96.6763 92.4641C96.1997 92.293 95.6818 92.2746 95.1943 92.4113C94.7068 92.548 94.274 92.8331 93.956 93.2271C93.5059 93.7887 92.9365 94.2431 92.289 94.5574C91.6415 94.8717 90.9322 95.0379 90.2125 95.0441C89.4928 95.0503 88.7808 94.8962 88.128 94.5931C87.4752 94.29 86.8981 93.8454 86.4384 93.2916C85.9788 92.7378 85.6481 92.0886 85.4704 91.3912C85.2927 90.6937 85.2725 89.9655 85.4111 89.2593C85.5498 88.553 85.8438 87.8865 86.272 87.308C86.7002 86.7295 87.2517 86.2535 87.8866 85.9146H87.9061C88.8968 85.3699 90.0492 85.1964 91.1563 85.4251C92.2634 85.6539 93.2526 86.2699 93.9463 87.1626C94.2668 87.5559 94.7021 87.8395 95.1915 87.9736C95.6809 88.1078 96.1999 88.0858 96.6763 87.9109ZM132.507 120.478C131.809 121.526 130.851 122.375 129.727 122.944C128.604 123.513 127.352 123.782 126.094 123.725C125.417 123.762 124.739 123.762 124.062 123.725L125.397 108.369C130.894 112.22 133.992 117.244 132.5 120.478H132.507Z" fill="black"/>
<path d="M129.188 75.5625C130.634 75.5625 132.048 75.1336 133.25 74.3301C134.453 73.5266 135.39 72.3846 135.943 71.0484C136.497 69.7122 136.642 68.2419 136.36 66.8234C136.077 65.4049 135.381 64.102 134.358 63.0793C133.336 62.0566 132.033 61.3602 130.614 61.078C129.196 60.7959 127.725 60.9407 126.389 61.4941C125.053 62.0476 123.911 62.9849 123.107 64.1874C122.304 65.3899 121.875 66.8037 121.875 68.25C121.875 70.1894 122.645 72.0494 124.017 73.4207C125.388 74.7921 127.248 75.5625 129.188 75.5625ZM129.188 65.8125C129.67 65.8125 130.141 65.9555 130.542 66.2233C130.943 66.4911 131.255 66.8718 131.439 67.3172C131.624 67.7626 131.672 68.2527 131.578 68.7255C131.484 69.1984 131.252 69.6327 130.911 69.9736C130.57 70.3145 130.136 70.5466 129.663 70.6407C129.19 70.7347 128.7 70.6864 128.255 70.502C127.809 70.3175 127.429 70.0051 127.161 69.6042C126.893 69.2034 126.75 68.7321 126.75 68.25C126.75 67.6035 127.007 66.9835 127.464 66.5264C127.921 66.0693 128.541 65.8125 129.188 65.8125Z" fill="black"/>
<path d="M143.813 92.625C145.259 92.625 146.673 92.1961 147.875 91.3926C149.078 90.5891 150.015 89.4471 150.568 88.1109C151.122 86.7747 151.267 85.3044 150.985 83.8859C150.702 82.4674 150.006 81.1645 148.983 80.1418C147.961 79.1191 146.658 78.4227 145.239 78.1405C143.821 77.8584 142.35 78.0032 141.014 78.5566C139.678 79.1101 138.536 80.0474 137.732 81.2499C136.929 82.4524 136.5 83.8662 136.5 85.3125C136.5 87.2519 137.27 89.1119 138.642 90.4832C140.013 91.8546 141.873 92.625 143.813 92.625ZM143.813 82.875C144.295 82.875 144.766 83.018 145.167 83.2858C145.568 83.5536 145.88 83.9343 146.064 84.3797C146.249 84.8251 146.297 85.3152 146.203 85.788C146.109 86.2609 145.877 86.6952 145.536 87.0361C145.195 87.377 144.761 87.6091 144.288 87.7032C143.815 87.7972 143.325 87.749 142.88 87.5645C142.434 87.38 142.054 87.0676 141.786 86.6667C141.518 86.2659 141.375 85.7946 141.375 85.3125C141.375 84.666 141.632 84.0461 142.089 83.5889C142.546 83.1318 143.166 82.875 143.813 82.875Z" fill="black"/>
<path d="M12.1875 112.125C12.1875 113.571 12.6164 114.985 13.4199 116.188C14.2234 117.39 15.3654 118.327 16.7016 118.881C18.0378 119.434 19.5081 119.579 20.9266 119.297C22.3451 119.015 23.648 118.318 24.6707 117.296C25.6934 116.273 26.3898 114.97 26.672 113.552C26.9541 112.133 26.8093 110.663 26.2559 109.327C25.7024 107.99 24.7651 106.848 23.5626 106.045C22.3601 105.241 20.9463 104.812 19.5 104.812C17.5606 104.812 15.7006 105.583 14.3293 106.954C12.9579 108.326 12.1875 110.186 12.1875 112.125ZM21.9375 112.125C21.9375 112.607 21.7945 113.078 21.5267 113.479C21.2589 113.88 20.8782 114.192 20.4328 114.377C19.9874 114.561 19.4973 114.61 19.0245 114.516C18.5516 114.422 18.1173 114.189 17.7764 113.849C17.4355 113.508 17.2034 113.073 17.1093 112.601C17.0153 112.128 17.0636 111.638 17.248 111.192C17.4325 110.747 17.745 110.366 18.1458 110.098C18.5466 109.83 19.0179 109.688 19.5 109.688C20.1465 109.688 20.7664 109.944 21.2236 110.401C21.6807 110.859 21.9375 111.479 21.9375 112.125Z" fill="black"/>
<path d="M12.1875 99.9375C13.6338 99.9375 15.0476 99.5086 16.2501 98.7051C17.4526 97.9016 18.3899 96.7596 18.9434 95.4234C19.4968 94.0872 19.6416 92.6169 19.3595 91.1984C19.0773 89.7799 18.3809 88.477 17.3582 87.4543C16.3355 86.4316 15.0326 85.7352 13.6141 85.453C12.1956 85.1709 10.7253 85.3157 9.38913 85.8691C8.05294 86.4226 6.91089 87.3599 6.10738 88.5624C5.30387 89.7649 4.875 91.1787 4.875 92.625C4.875 94.5644 5.64542 96.4244 7.01678 97.7957C8.38814 99.1671 10.2481 99.9375 12.1875 99.9375ZM12.1875 90.1875C12.6696 90.1875 13.1409 90.3305 13.5417 90.5983C13.9425 90.8661 14.255 91.2468 14.4395 91.6922C14.6239 92.1376 14.6722 92.6277 14.5782 93.1005C14.4841 93.5734 14.252 94.0077 13.9111 94.3486C13.5702 94.6895 13.1359 94.9216 12.663 95.0157C12.1902 95.1097 11.7001 95.0615 11.2547 94.877C10.8093 94.6925 10.4286 94.3801 10.1608 93.9792C9.89296 93.5784 9.75 93.1071 9.75 92.625C9.75 91.9785 10.0068 91.3586 10.4639 90.9014C10.921 90.4443 11.541 90.1875 12.1875 90.1875Z" fill="black"/>
</svg>
