<svg width="156" height="156" viewBox="0 0 156 156" fill="none" xmlns="http://www.w3.org/2000/svg">
<path d="M69.2477 72.081C68.3553 72.9734 68.3553 74.4204 69.2477 75.3128L80.8152 86.8806C81.7076 87.773 83.1543 87.773 84.047 86.8806C84.9394 85.9882 84.9394 84.5413 84.047 83.6489L72.4791 72.081C71.587 71.1886 70.1401 71.1886 69.2477 72.081ZM150.583 3.94629C145.489 -1.14799 137.243 -1.14921 132.147 3.94629L78.0706 58.0227C70.6928 53.8976 62.6921 51.9108 55.229 52.4924C56.1196 35.7301 42.9375 29.1943 35.7592 19.7395C33.4162 16.6536 28.7509 16.6488 26.404 19.7395C19.2644 29.1431 6.89825 35.1387 6.89825 51.1945C6.89825 62.8205 15.1454 72.5539 26.0962 74.8582C19.3146 79.6767 12.9422 82.7117 4.73836 85.1543C1.30338 86.1771 -0.682838 89.6907 0.216277 93.1537L3.1269 104.364C4.00408 107.743 6.89947 110.015 10.1934 110.21L11.5562 114.473C11.9395 115.672 13.2234 116.339 14.4288 115.954C15.6307 115.569 16.294 114.283 15.9095 113.081L14.2782 107.979C13.9391 106.918 14.5022 105.797 15.5603 105.427C30.3353 100.265 38.9937 94.6043 54.5858 79.6798L66.5363 91.6303C48.9318 108.43 37.9962 115.529 20.8082 121.507C20.2771 121.692 19.7095 121.654 19.2083 121.401C18.0822 120.832 16.7075 121.283 16.138 122.409C15.5686 123.535 16.0201 124.91 17.1465 125.479C18.7638 126.297 20.5967 126.419 22.31 125.823C25.5122 124.71 28.5005 123.558 31.3587 122.323C30.0994 125.21 28.9033 128.279 27.7497 131.596C26.528 135.108 28.4301 138.938 31.9796 140.073C44.715 144.089 44.3074 144.139 45.5885 144.263C44.5938 147.865 46.7479 151.511 50.2934 152.432C63.0815 155.68 62.9158 155.875 64.4014 155.875C67.2596 155.874 69.8643 154.014 70.7208 151.136C74.4861 138.49 79.9313 129.584 91.9796 116.574C94.4783 117.72 97.3487 116.865 98.8734 114.695C105.034 105.925 105.927 92.0395 98.1068 78.0564L141.885 34.2779C142.778 33.3855 142.778 31.9386 141.885 31.0465C140.993 30.1541 139.546 30.1538 138.654 31.0465L95.6267 74.073C93.8282 71.4595 91.7633 68.9717 89.4599 66.6683C87.1425 64.3509 84.6557 62.2879 82.0571 60.4995L135.379 7.17774C138.68 3.87682 144.05 3.87682 147.351 7.17774L148.95 8.77671C152.258 12.0843 152.26 17.4403 148.951 20.7495L146.42 23.2802C145.527 24.1726 145.527 25.6192 146.419 26.5116C147.312 27.404 148.759 27.4043 149.651 26.5116L152.182 23.9809C154.644 21.5188 156 18.245 156 14.7631C156 7.99337 151.227 4.81828 150.583 3.94629ZM11.4685 51.1948C11.4685 37.4046 22.6485 32.2433 30.0437 22.5032C30.558 21.8259 31.6006 21.8204 32.1192 22.5029C39.5107 32.2387 50.6944 37.4037 50.6944 51.1945C50.6944 62.0092 41.8961 70.8074 31.0814 70.8074C20.2671 70.8077 11.4685 62.0091 11.4685 51.1948ZM14.0528 101.113C11.9243 101.857 10.4185 103.548 9.85275 105.549C8.75955 105.26 7.85799 104.4 7.55057 103.216L4.63995 92.0057C4.36238 90.9371 4.97875 89.8519 6.0427 89.535C16.376 86.4586 24.2697 82.3098 33.1201 75.286C37.7345 74.8987 41.9854 73.2166 45.502 70.596L51.3534 76.4474C36.3664 90.7824 28.073 96.2142 14.0528 101.113ZM47.0711 139.53C46.6117 139.746 46.0876 139.786 45.5943 139.628L33.3708 135.721C32.2724 135.37 31.6887 134.183 32.0659 133.098C33.862 127.934 35.7565 123.399 37.8417 119.252C48.1375 113.901 57.3581 106.714 69.7684 94.863L73.3109 98.4055C59.3592 113.438 52.0326 124.845 47.0711 139.53ZM66.3404 149.833C66.0238 150.897 64.9383 151.513 63.8697 151.235L51.4418 148.009C50.3315 147.721 49.6704 146.567 49.9988 145.445C54.7476 129.237 61.7821 117.571 76.5457 101.64L88.5057 113.6C76.0031 127.118 70.3192 136.468 66.3404 149.833ZM86.2282 69.9001C99.1296 82.8015 102.958 100.93 95.1331 112.068C94.7666 112.59 94.0372 112.668 93.5945 112.225L48.8971 67.5278C51.5576 64.6282 53.5212 61.0808 54.5203 57.1513C65.9967 55.7949 77.8781 61.5503 86.2282 69.9001Z" fill="black"/>
</svg>
