<svg width="156" height="156" viewBox="0 0 156 156" fill="none" xmlns="http://www.w3.org/2000/svg">
<g clip-path="url(#clip0)">
<path d="M54.1749 88.2618C64.2248 88.2618 72.4014 80.0852 72.4014 70.0341C72.4014 59.983 64.2248 51.8064 54.1749 51.8064C51.416 51.8064 48.7464 52.4158 46.3089 53.5869C43.3644 49.5594 38.6346 47.0897 33.518 47.0897C25.7366 47.0897 19.2477 52.7288 17.923 60.1353C17.0208 59.9687 16.102 59.8842 15.1808 59.8842C6.81024 59.8842 0 66.6945 0 75.065C0 83.1785 6.39725 89.8257 14.4131 90.2268C17.9432 97.1192 25.1605 101.617 33.0015 101.617C37.7551 101.617 42.4063 99.9744 46.0971 96.993C48.9738 94.6698 51.1851 91.6086 52.4955 88.1844C53.0525 88.2356 53.6131 88.2618 54.1749 88.2618ZM48.7845 82.1324C48.0811 82.5596 47.5824 83.2535 47.3991 84.0557C45.8567 90.8076 39.9355 95.5243 33.0015 95.5243C26.9303 95.5243 21.3888 91.7157 19.2096 86.0481C18.7538 84.8626 17.6171 84.0938 16.3674 84.0938C16.2698 84.0938 16.1711 84.0997 16.0723 84.1081C15.7688 84.1378 15.4688 84.1533 15.1808 84.1533C10.1701 84.1533 6.09256 80.0757 6.09256 75.065C6.09256 70.0532 10.1701 65.9768 15.1808 65.9768C16.6626 65.9768 18.0765 66.3243 19.3857 67.0087C20.3807 67.53 21.5828 67.4597 22.5124 66.8278C23.4407 66.1958 23.9465 65.1032 23.8263 63.9856C23.7882 63.6273 23.7692 63.2727 23.7692 62.9299C23.7692 57.555 28.1419 53.1823 33.518 53.1823C37.3778 53.1823 40.8793 55.4662 42.4396 59.0023C42.8122 59.8461 43.5465 60.4757 44.438 60.715C45.3282 60.9542 46.2804 60.7769 47.0242 60.2329C49.1118 58.7059 51.585 57.9002 54.1749 57.9002C60.8661 57.9002 66.3088 63.3429 66.3088 70.0341C66.3088 76.7253 60.8661 82.1693 54.1749 82.1693C53.143 82.1693 52.1194 82.0395 51.1304 81.7836C50.3341 81.5789 49.4879 81.7039 48.7845 82.1324Z" fill="black"/>
<path d="M51.4474 33.3799C52.0652 33.3799 52.6769 33.3419 53.2815 33.2669C55.0692 41.5601 62.4698 47.8002 71.2795 47.8002C77.1876 47.8002 82.7243 44.9378 86.1663 40.2152C86.3258 40.2199 86.4853 40.2235 86.6436 40.2235C94.7071 40.2235 101.266 33.6632 101.266 25.6009C101.266 19.0465 96.8411 13.3253 90.6891 11.5496C88.2301 4.65958 81.727 0 74.2538 0C68.6063 0 63.4552 2.67316 60.2155 7.06375C57.7138 5.18802 54.6407 4.13589 51.4474 4.13589C43.3839 4.13589 36.8248 10.695 36.8248 18.7585C36.8248 26.8208 43.3839 33.3799 51.4474 33.3799ZM51.4474 10.2285C54.2015 10.2285 56.8021 11.5734 58.4029 13.8252C59.048 14.7321 60.1358 15.2153 61.2403 15.0856C62.346 14.9559 63.2922 14.2346 63.7099 13.2027C65.4583 8.88354 69.5966 6.09256 74.2538 6.09256C79.5525 6.09256 84.1026 9.69049 85.3189 14.8416C85.607 16.0627 86.6139 16.9828 87.8564 17.1589C92.028 17.7504 95.1737 21.3793 95.1737 25.6009C95.1737 30.3045 91.3472 34.131 86.6436 34.131C86.1556 34.131 85.6546 34.0857 85.1535 33.9977C83.8848 33.7751 82.6184 34.3702 81.9805 35.4866C79.7881 39.3237 75.688 41.7077 71.2795 41.7077C64.5097 41.7077 58.9837 36.1995 58.9623 29.4297C58.9587 28.4121 58.4481 27.4623 57.5995 26.9006C57.0925 26.5638 56.5057 26.3924 55.9154 26.3924C55.5167 26.3924 55.1168 26.4709 54.7395 26.6292C53.6957 27.066 52.5876 27.2874 51.4463 27.2874C46.7438 27.2874 42.9162 23.4609 42.9162 18.7573C42.9162 14.0549 46.7438 10.2285 51.4474 10.2285Z" fill="black"/>
<path d="M122.302 53.844C123.103 53.844 123.888 53.5191 124.455 52.9514C125.021 52.3849 125.348 51.5993 125.348 50.7983C125.348 49.9973 125.021 49.2106 124.455 48.6441C123.888 48.0776 123.103 47.7515 122.302 47.7515C121.501 47.7515 120.714 48.0776 120.148 48.6441C119.581 49.2106 119.255 49.9973 119.255 50.7983C119.255 51.5993 119.581 52.3849 120.148 52.9514C120.714 53.5191 121.501 53.844 122.302 53.844Z" fill="black"/>
<path d="M155.785 30.6807C155.396 29.2275 154.462 28.0111 153.159 27.2589L142.452 21.0771C141.149 20.3249 139.629 20.1249 138.176 20.5141C136.721 20.9045 135.506 21.8364 134.754 23.1397L125.494 39.1762C124.654 40.6342 125.153 42.4969 126.61 43.3383C128.068 44.1798 129.93 43.6799 130.772 42.2231L139.802 26.5829L149.717 32.3065L117.313 88.4309L107.398 82.7061L118.583 63.3322C119.425 61.8755 118.926 60.0128 117.468 59.1713C116.011 58.3299 114.148 58.8298 113.307 60.2866L102.122 79.6592L98.6403 77.6502C97.9405 77.2467 97.1086 77.1372 96.329 77.3455C95.5482 77.555 94.8829 78.0655 94.4794 78.7654L87.5145 90.8279C87.0634 90.8612 86.6194 90.9874 86.2148 91.2207L53.3823 110.122C52.3445 110.719 51.753 111.869 51.8708 113.061C53.3645 128.256 61.697 141.379 74.7664 149.187C74.7676 149.187 74.7688 149.189 74.7711 149.19L74.7723 149.191C74.9842 149.317 75.1925 149.446 75.4055 149.568C82.812 153.846 90.941 156 99.1116 156C105.765 156 112.446 154.572 118.789 151.696C119.879 151.202 120.579 150.116 120.578 148.918L120.531 111.034C120.531 110.567 120.418 110.118 120.221 109.711L127.186 97.6477C128.027 96.1909 127.527 94.3282 126.071 93.4868L122.589 91.4777L155.222 34.9582C155.974 33.6538 156.174 32.1351 155.785 30.6807ZM103.803 149.624L105.74 131.312C105.917 129.64 104.704 128.139 103.031 127.963C101.36 127.784 99.8579 128.998 99.6805 130.672L97.6775 149.614C97.6679 149.699 97.6656 149.785 97.6632 149.869C91.7706 149.658 85.9315 148.162 80.4817 145.392L91.767 125.844C92.6085 124.386 92.1098 122.524 90.653 121.682C89.195 120.841 87.3324 121.341 86.4909 122.797L75.2579 142.253C70.308 138.78 66.2708 134.367 63.3228 129.294L78.3536 118.358C79.714 117.368 80.0139 115.462 79.0249 114.102C78.0346 112.742 76.1292 112.442 74.7688 113.431L60.6282 123.72C59.4666 120.76 58.6346 117.639 58.1681 114.398L87.7323 97.3775L114.441 112.798L114.483 146.912C110.999 148.306 107.413 149.205 103.803 149.624ZM115.21 106.206L104.133 99.8102L93.0572 93.4154L98.2333 84.4497L120.386 97.2394L115.21 106.206Z" fill="black"/>
<path d="M29.6628 133.431C21.7017 133.431 15.2259 126.955 15.2259 118.994C15.2259 117.312 13.8619 115.948 12.179 115.948C10.4973 115.948 9.1333 117.312 9.1333 118.994C9.1333 130.313 18.3418 139.523 29.6628 139.523C31.3445 139.523 32.7085 138.159 32.7085 136.477C32.7085 134.794 31.3445 133.431 29.6628 133.431Z" fill="black"/>
<path d="M141.035 109.551C139.352 109.551 137.988 110.915 137.988 112.598C137.988 115.825 135.363 118.451 132.135 118.451C130.452 118.451 129.088 119.815 129.088 121.498C129.088 123.179 130.452 124.543 132.135 124.543C138.721 124.543 144.081 119.184 144.081 112.598C144.081 110.915 142.717 109.551 141.035 109.551Z" fill="black"/>
<path d="M34.5762 108.603C33.7716 108.603 32.9885 108.929 32.4219 109.496C31.8554 110.062 31.5293 110.848 31.5293 111.649C31.5293 112.45 31.8554 113.237 32.4219 113.803C32.9897 114.37 33.7752 114.696 34.5762 114.696C35.3772 114.696 36.1627 114.37 36.7292 113.803C37.2957 113.237 37.6219 112.45 37.6219 111.649C37.6219 110.848 37.2969 110.062 36.7292 109.496C36.1627 108.929 35.3772 108.603 34.5762 108.603Z" fill="black"/>
<path d="M41.8485 133.431C41.0463 133.431 40.2608 133.757 39.6943 134.323C39.1277 134.89 38.8016 135.673 38.8016 136.477C38.8016 137.278 39.1277 138.064 39.6943 138.63C40.2608 139.197 41.0463 139.523 41.8485 139.523C42.6495 139.523 43.435 139.197 44.0016 138.63C44.5681 138.064 44.8942 137.278 44.8942 136.477C44.8942 135.676 44.5681 134.89 44.0016 134.323C43.435 133.757 42.6495 133.431 41.8485 133.431Z" fill="black"/>
<path d="M12.1796 143.505C11.3786 143.505 10.5919 143.831 10.0265 144.398C9.4588 144.965 9.13269 145.75 9.13269 146.551C9.13269 147.356 9.4588 148.139 10.0265 148.705C10.5919 149.272 11.3786 149.598 12.1796 149.598C12.9806 149.598 13.7661 149.272 14.3338 148.705C14.9003 148.139 15.2252 147.352 15.2252 146.551C15.2252 145.75 14.9003 144.965 14.3338 144.398C13.7661 143.831 12.9806 143.505 12.1796 143.505Z" fill="black"/>
<path d="M133.153 140.623C132.348 140.623 131.563 140.947 130.996 141.515C130.43 142.082 130.104 142.869 130.104 143.67C130.104 144.471 130.429 145.254 130.996 145.824C131.565 146.39 132.348 146.715 133.153 146.715C133.954 146.715 134.737 146.39 135.307 145.824C135.873 145.256 136.196 144.471 136.196 143.67C136.196 142.869 135.873 142.082 135.307 141.515C134.741 140.947 133.954 140.623 133.153 140.623Z" fill="black"/>
</g>
<defs>
<clipPath id="clip0">
<rect width="156" height="156" fill="white"/>
</clipPath>
</defs>
</svg>
