<svg width="156" height="156" viewBox="0 0 156 156" fill="none" xmlns="http://www.w3.org/2000/svg">
<path d="M140.4 70.2V2.6C140.4 1.16415 139.236 0 137.8 0H7.80032C6.36447 0 5.20032 1.16415 5.20032 2.6V153.4C5.20032 154.836 6.36447 156 7.80032 156H137.8C139.236 156 140.4 154.836 140.4 153.4V106.6H135.2V150.8H10.4003V5.2H135.2V70.2H140.4Z" fill="black"/>
<path d="M130 67.6V13C130 11.5642 128.836 10.4 127.4 10.4H18.2C16.7641 10.4 15.6 11.5642 15.6 13V143C15.6 144.436 16.7641 145.6 18.2 145.6H127.4C128.836 145.6 130 144.436 130 143V111.8H124.8V140.4H20.8V15.6H124.8V67.6H130Z" fill="black"/>
<path d="M47.5594 24.1618L29.3605 42.3607L33.0374 46.0376L51.2363 27.8387L47.5594 24.1618Z" fill="black"/>
<path d="M63.1628 24.1593L29.3625 57.9596L33.0395 61.6365L66.8398 27.8362L63.1628 24.1593Z" fill="black"/>
<path d="M57.1996 119.6V127.4C57.1996 128.836 56.0355 130 54.5996 130C53.1638 130 51.9996 128.836 51.9996 127.4V117C51.9996 112.692 48.5075 109.2 44.1996 109.2C39.8918 109.2 36.3996 112.692 36.3996 117V119.6C36.3996 121.036 35.2355 122.2 33.7996 122.2C32.3638 122.2 31.1996 121.036 31.1996 119.6V106.6H25.9996V119.6C25.9996 123.908 29.4918 127.4 33.7996 127.4C38.1075 127.4 41.5996 123.908 41.5996 119.6V117C41.5996 115.564 42.7638 114.4 44.1996 114.4C45.6355 114.4 46.7996 115.564 46.7996 117V127.4C46.7996 131.708 50.2918 135.2 54.5996 135.2C58.9075 135.2 62.3996 131.708 62.3996 127.4V119.6H57.1996Z" fill="black"/>
<path d="M150.8 80.6V75.4H130C130 74.6727 129.696 73.9788 129.161 73.4864C128.63 72.9876 127.91 72.7415 127.185 72.8104L97.7397 75.2622L93.3197 66.4378C92.8803 65.5587 91.9833 65.0026 91.0005 65H83.2005C82.7809 65.0085 82.3698 65.1209 82.0045 65.3276L77.6729 60.996L75.7749 55.302L92.8387 38.2382C93.8537 37.2229 93.8537 35.5771 92.8387 34.5618L85.0387 26.7618C84.0234 25.7469 82.3776 25.7469 81.3623 26.7618L31.9623 76.0864C30.9509 77.1011 30.9509 78.743 31.9623 79.7576L39.7623 87.633C40.2488 88.1225 40.9102 88.3984 41.6005 88.4C42.2901 88.4 42.9512 88.1257 43.4387 87.6382L60.5025 70.5744L66.1965 72.4724L69.3165 75.5924C68.2996 75.96 67.6161 76.9188 67.6005 78V98.8C67.595 100.149 68.6226 101.278 69.9665 101.4L97.6279 103.914L107.362 113.649C108.378 114.664 110.023 114.664 111.039 113.649L118.839 105.849L127.159 106.605C127.237 106.605 127.315 106.605 127.393 106.605C128.829 106.605 129.993 105.441 129.993 104.005V101.4H150.793V96.2H130V80.6H150.8ZM41.6005 82.1132L37.4613 77.935L83.2005 32.2764L87.3241 36.4L41.6005 82.1132ZM69.4387 68.3618C69.1524 68.0778 68.8046 67.8633 68.4221 67.7352L64.6053 66.4638L68.1309 62.9382L71.6565 59.4152L72.9253 63.2216C73.0533 63.6048 73.2685 63.9529 73.5545 64.2382L80.6005 71.2764V75.4H76.4769L69.4387 68.3618ZM109.2 108.124L105.716 104.64L112.105 105.219L109.2 108.124ZM124.8 101.153L72.8005 96.4262V80.6H83.2005C84.6363 80.6 85.8005 79.4359 85.8005 78V70.2H89.3937L93.8605 79.1622C94.3324 80.1171 95.3425 80.6839 96.4033 80.5896L124.8 78.2262V101.153Z" fill="black"/>
<path d="M98.0382 39.7525L94.3613 43.4294L115.162 64.2298L118.839 60.5528L98.0382 39.7525Z" fill="black"/>
<path d="M48.6333 89.1543L44.9564 92.8312L65.7568 113.631L69.4337 109.955L48.6333 89.1543Z" fill="black"/>
</svg>
