<svg width="156" height="156" viewBox="0 0 156 156" fill="none" xmlns="http://www.w3.org/2000/svg">
<g clip-path="url(#clip0)">
<path d="M78.3042 65.0813H80.6905C81.2562 65.0813 81.7987 64.8566 82.1987 64.4566C82.5986 64.0567 82.8233 63.5142 82.8233 62.9485C82.8233 62.3829 82.5986 61.8404 82.1987 61.4404C81.7987 61.0404 81.2562 60.8157 80.6905 60.8157H78.4029L79.2561 55.1997C79.298 54.9228 79.285 54.6402 79.2177 54.3683C79.1505 54.0964 79.0303 53.8404 78.8641 53.6149C78.5285 53.1595 78.0257 52.856 77.4663 52.7714C76.907 52.6867 76.3369 52.8277 75.8815 53.1633C75.4261 53.4989 75.1226 54.0017 75.0379 54.5611L74.1739 60.2734C74.0835 60.8684 74.1227 61.4758 74.2887 62.0543C74.4547 62.6328 74.7437 63.1685 75.1359 63.625C75.528 64.0815 76.0141 64.448 76.5609 64.6993C77.1078 64.9507 77.7024 65.081 78.3042 65.0813Z" fill="black"/>
<path d="M77.8485 77.3907C79.6765 77.4596 81.4978 77.1309 83.1864 76.4273C84.875 75.7236 86.3907 74.6618 87.629 73.3152C87.8162 73.1003 87.9586 72.8501 88.0475 72.5793C88.1364 72.3084 88.1702 72.0225 88.1467 71.7385C88.1233 71.4544 88.0432 71.1779 87.911 70.9253C87.7789 70.6727 87.5975 70.4492 87.3775 70.2679C87.1576 70.0866 86.9035 69.9513 86.6303 69.8698C86.3571 69.7884 86.0704 69.7626 85.7871 69.7939C85.5037 69.8252 85.2295 69.9129 84.9807 70.052C84.7319 70.1911 84.5134 70.3786 84.3383 70.6035C83.4953 71.4573 82.4813 72.1233 81.3629 72.5579C80.2445 72.9924 79.0468 73.1857 77.8485 73.1251C76.6498 73.1858 75.4519 72.9924 74.3332 72.5576C73.2146 72.1228 72.2005 71.4565 71.3574 70.6023C70.9915 70.1873 70.4787 69.9307 69.9272 69.8868C69.3757 69.8428 68.8287 70.0148 68.4016 70.3666C67.9746 70.7183 67.7009 71.2223 67.6385 71.772C67.576 72.3217 67.7296 72.8742 68.0668 73.3128C69.3051 74.6597 70.821 75.7218 72.5098 76.4259C74.1986 77.1299 76.0201 77.4591 77.8485 77.3907Z" fill="black"/>
<path d="M126.095 106.675C122.696 105.853 119.228 105.351 115.735 105.176C115.097 105.125 114.461 105.073 113.826 105.019C112.851 104.932 111.852 104.859 110.855 104.785C109.263 104.663 107.616 104.541 106.024 104.366C105.06 104.26 103.806 104.109 102.579 103.873L102.182 103.741C101.289 103.548 100.451 103.157 99.7282 102.599C99.0056 102.04 98.4169 101.327 98.005 100.512C97.7689 100.072 97.5845 99.6074 97.4553 99.1258C97.3887 98.8907 97.3382 98.6513 97.3042 98.4092L96.1281 89.2064C99.9314 86.1392 102.892 82.1549 104.731 77.6283C105.976 74.2531 106.898 70.7672 107.483 67.2178C107.54 66.9228 107.605 66.6352 107.661 66.3415C108.213 66.4384 108.772 66.4894 109.332 66.4938C111.986 66.4974 114.542 65.4884 116.478 63.6727C118.415 61.8569 119.585 59.371 119.752 56.7219C119.918 54.0728 119.068 51.4598 117.375 49.4158C115.682 47.3717 113.272 46.0505 110.639 45.7214V14.3264C110.639 13.7989 110.443 13.29 110.09 12.8981C105.86 8.73318 100.845 5.44871 95.3372 3.23476C89.829 1.02081 83.9364 -0.0786459 78.0004 3.73353e-05C72.0661 -0.077352 66.1753 1.02273 60.6689 3.23664C55.1624 5.45056 50.1497 8.73436 45.9205 12.8981C45.5673 13.29 45.3719 13.7989 45.3721 14.3264V45.6788C42.7036 45.9344 40.236 47.2076 38.4814 49.2342C36.7267 51.2608 35.8198 53.8852 35.9486 56.5628C36.0775 59.2403 37.2324 61.7655 39.1736 63.6142C41.1148 65.4629 43.6932 66.4932 46.3739 66.4914C47.0341 66.4876 47.6924 66.4203 48.3397 66.2903C48.4006 66.5998 48.4616 66.8997 48.5274 67.2153C49.1131 70.7677 50.0349 74.2564 51.2806 77.6344C53.119 82.1612 56.0792 86.1456 59.8825 89.2125L58.7064 98.4141C58.6716 98.6531 58.6199 98.8893 58.5516 99.121C58.263 100.225 57.688 101.233 56.8849 102.044C56.0818 102.855 55.079 103.44 53.9776 103.739L53.8253 103.78C53.6711 103.826 53.5145 103.864 53.3561 103.892C52.503 104.033 51.6376 104.145 50.7736 104.245C48.5518 104.501 46.241 104.65 44.0046 104.797C39.254 104.948 34.5308 105.579 29.9073 106.681C23.6866 108.394 18.1985 112.098 14.2832 117.227C10.3679 122.355 8.24101 128.625 8.22821 135.078V153.867C8.22853 154.433 8.45318 154.975 8.85282 155.375C9.25247 155.774 9.79446 155.999 10.3598 156H145.641C146.207 156 146.749 155.775 147.149 155.375C147.549 154.975 147.774 154.433 147.774 153.867V135.078C147.762 128.624 145.636 122.353 141.721 117.223C137.805 112.093 132.317 108.388 126.095 106.675ZM58.5333 106.181C59.8211 105.208 60.8989 103.984 61.7021 102.583L74.4831 108.82L69.2693 114.426L58.5333 106.181ZM81.5214 108.82L94.2744 102.597C95.0335 104.029 96.1159 105.265 97.4358 106.206L86.7352 114.431L81.5214 108.82ZM115.488 56.0625C115.486 57.6969 114.835 59.2635 113.679 60.419C112.524 61.5744 110.957 62.2241 109.322 62.2258C109.058 62.2208 108.794 62.1976 108.533 62.1563L109.971 55.5884C110.361 53.7619 110.577 51.9021 110.613 50.0346C111.992 50.3314 113.228 51.0914 114.114 52.1881C115.001 53.2848 115.486 54.6521 115.488 56.0625ZM60.1494 43.2657C57.7324 43.2626 55.3901 42.4282 53.5155 40.9026C51.641 39.3769 50.3484 37.2527 49.8546 34.8868H106.146C105.653 37.2527 104.36 39.3769 102.485 40.9026C100.611 42.4282 98.2684 43.2626 95.8515 43.2657H60.1494ZM49.6377 15.2039C57.4059 8.16228 67.5157 4.26207 78.0004 4.26207C88.4852 4.26207 98.595 8.16228 106.363 15.2039V30.6248H49.6377V15.2039ZM40.2082 56.0625C40.211 54.601 40.7333 53.188 41.682 52.0761C42.6306 50.9643 43.9438 50.226 45.3867 49.9932C45.4211 51.8783 45.637 53.7557 46.0314 55.5994L47.4598 62.1222C47.1018 62.1909 46.7383 62.2268 46.3739 62.2294C44.7389 62.2278 43.1714 61.5775 42.0154 60.4213C40.8595 59.2651 40.2095 57.6975 40.2082 56.0625ZM55.233 76.0257C54.0962 72.8993 53.2524 69.674 52.7126 66.3914C52.4932 65.2799 52.2751 64.1733 52.0374 63.0838L50.2007 54.6902C49.8275 52.9658 49.6388 51.2066 49.6377 49.4423V43.1279C52.3361 45.8664 55.9984 47.4411 59.8423 47.5154C59.6314 48.0709 59.5208 48.6593 59.5156 49.2534C59.5156 50.6003 60.0507 51.892 61.0031 52.8444C61.9555 53.7969 63.2473 54.3319 64.5942 54.3319C65.9411 54.3319 67.2328 53.7969 68.1852 52.8444C69.1377 51.892 69.6727 50.6003 69.6727 49.2534C69.6659 48.6647 69.5557 48.0819 69.3473 47.5313H86.6535C86.4463 48.0825 86.3373 48.6658 86.3318 49.2546C86.3318 50.6015 86.8669 51.8933 87.8193 52.8457C88.7717 53.7981 90.0634 54.3331 91.4103 54.3331C92.7572 54.3331 94.049 53.7981 95.0014 52.8457C95.9538 51.8933 96.4889 50.6015 96.4889 49.2546C96.4837 48.6605 96.3731 48.0721 96.1622 47.5167C100.006 47.4423 103.668 45.8676 106.367 43.1292V49.4435C106.366 51.2053 106.178 52.962 105.806 54.6841L103.96 63.0838C103.952 63.113 103.948 63.1435 103.942 63.1739V63.1898V63.2032C103.714 64.2525 103.503 65.3177 103.291 66.389C102.751 69.6693 101.908 72.8924 100.773 76.0171C99.1082 80.1124 96.3677 83.6816 92.8411 86.3473C92.6722 86.4379 92.5164 86.551 92.378 86.6836C88.1894 89.6939 83.1615 91.3132 78.0035 91.3132C72.8454 91.3132 67.8175 89.6939 63.6289 86.6836C63.49 86.5502 63.3333 86.4366 63.1634 86.346C59.6373 83.6833 56.8971 80.1164 55.233 76.0232V76.0257ZM78.0004 95.5829C82.9592 95.5901 87.8362 94.3195 92.1611 91.8938L93.002 98.475L78.0004 105.788L62.9988 98.475L63.8398 91.8938C68.1647 94.3196 73.0417 95.5902 78.0004 95.5829ZM12.4926 135.078C12.5014 129.558 14.3191 124.194 17.6673 119.807C21.0156 115.419 25.7098 112.25 31.031 110.784C35.3778 109.759 39.8171 109.175 44.2813 109.043C46.5676 108.893 48.9332 108.739 51.2611 108.471C52.1922 108.364 53.1209 108.243 54.0288 108.093L68.2053 118.991C68.6347 119.294 69.1571 119.436 69.6806 119.391C70.204 119.347 70.695 119.119 71.067 118.748L75.8676 113.588V151.734H31.5356V144.612C31.5356 144.046 31.3109 143.504 30.9109 143.104C30.5109 142.704 29.9684 142.479 29.4028 142.479C28.8371 142.479 28.2946 142.704 27.8946 143.104C27.4947 143.504 27.27 144.046 27.27 144.612V151.734H12.4926V135.078ZM143.508 151.734H128.731V144.612C128.731 144.046 128.506 143.504 128.106 143.104C127.706 142.704 127.164 142.479 126.598 142.479C126.032 142.479 125.49 142.704 125.09 143.104C124.69 143.504 124.465 144.046 124.465 144.612V151.734H80.1332V113.588L84.9339 118.753C85.2923 119.147 85.7863 119.391 86.3169 119.436C86.8475 119.481 87.3757 119.324 87.7955 118.996L101.972 108.103C103.277 108.347 104.558 108.502 105.55 108.61C107.216 108.794 108.902 108.92 110.531 109.042C111.506 109.115 112.481 109.187 113.447 109.271C114.091 109.328 114.738 109.38 115.386 109.432C118.616 109.586 121.824 110.042 124.97 110.793C130.29 112.258 134.984 115.426 138.333 119.813C141.681 124.2 143.5 129.563 143.509 135.081L143.508 151.734Z" fill="black"/>
<path d="M86.3806 125.608C85.8149 125.608 85.2724 125.833 84.8724 126.233C84.4725 126.633 84.2477 127.175 84.2477 127.741V131.016C84.2477 131.581 84.4725 132.124 84.8724 132.524C85.2724 132.924 85.8149 133.149 86.3806 133.149C86.9462 133.149 87.4887 132.924 87.8887 132.524C88.2887 132.124 88.5134 131.581 88.5134 131.016V127.741C88.5134 127.175 88.2887 126.633 87.8887 126.233C87.4887 125.833 86.9462 125.608 86.3806 125.608Z" fill="black"/>
<path d="M86.3806 139.205C85.8149 139.205 85.2724 139.429 84.8724 139.829C84.4725 140.229 84.2477 140.772 84.2477 141.337V144.612C84.2477 145.178 84.4725 145.72 84.8724 146.12C85.2724 146.52 85.8149 146.745 86.3806 146.745C86.9462 146.745 87.4887 146.52 87.8887 146.12C88.2887 145.72 88.5134 145.178 88.5134 144.612V141.337C88.5134 140.772 88.2887 140.229 87.8887 139.829C87.4887 139.429 86.9462 139.205 86.3806 139.205Z" fill="black"/>
<path d="M41.4375 143.763H68.2415C68.5216 143.763 68.7989 143.708 69.0577 143.6C69.3164 143.493 69.5515 143.336 69.7496 143.138C69.9476 142.94 70.1048 142.705 70.2119 142.446C70.3191 142.187 70.3743 141.91 70.3743 141.63V134.317C70.374 133.752 70.1492 133.21 69.7492 132.81C69.3493 132.41 68.807 132.185 68.2415 132.185H41.4375C40.8719 132.185 40.3296 132.41 39.9297 132.81C39.5298 133.21 39.305 133.752 39.3047 134.317V141.63C39.3047 142.196 39.5294 142.738 39.9294 143.138C40.3294 143.538 40.8718 143.763 41.4375 143.763ZM43.5703 136.45H66.1087V139.497H43.5703V136.45Z" fill="black"/>
</g>
<defs>
<clipPath id="clip0">
<rect width="156" height="156" fill="white"/>
</clipPath>
</defs>
</svg>
