<svg width="171" height="495" viewBox="0 0 171 495" fill="none" xmlns="http://www.w3.org/2000/svg">
<g id="Frame 2">
<g id="Hand">
<path id="Vector" d="M50.6178 36.1136V24.8651C50.6178 24.8651 63.0503 0 52.9859 0C42.9214 0 41.7374 22.497 41.7374 22.497V38.4817L50.6178 36.1136Z" fill="#FFB8B8"/>
<path id="Vector_2" d="M86.1396 75.1873L83.1795 72.8192C83.1795 72.8192 77.8513 72.8192 77.2593 71.6351C76.6673 70.4511 73.7071 70.4511 71.339 69.267C68.9709 68.083 71.931 66.3069 68.9709 65.1229C66.0108 63.9388 66.0107 65.1229 66.0107 62.1627C66.0107 59.2026 58.3144 56.2425 57.7224 52.6903C57.1304 49.1381 51.2101 32.5614 51.2101 32.5614L39.9616 36.1136L42.9218 57.4265C42.9218 57.4265 42.9218 68.083 48.25 75.1873C53.5782 82.2916 65.4187 100.052 71.339 100.644C77.2592 101.236 86.1396 75.1873 86.1396 75.1873Z" fill="#575A88"/>
</g>
<g id="Man">
<path id="Vector_3" opacity="0.1" d="M132 494.672C117.641 494.672 106 490.642 106 485.672C106 480.701 117.641 476.672 132 476.672C146.359 476.672 158 480.701 158 485.672C158 490.642 146.359 494.672 132 494.672Z" fill="black"/>
<path id="Vector_4" opacity="0.1" d="M26 494.672C11.6406 494.672 0 490.642 0 485.672C0 480.701 11.6406 476.672 26 476.672C40.3594 476.672 52 480.701 52 485.672C52 490.642 40.3594 494.672 26 494.672Z" fill="black"/>
<path id="Vector_5" d="M28.7539 152.672V180.32H132.246V154.362H135.246V485.672H132.246V426.359H28.7539V485.672H25.7539V152.672H28.7539ZM28.7539 183.32V228.928H132.246V183.32L28.7539 183.32ZM132.246 326.143V280.536H28.7539V326.143H132.246ZM28.7539 329.143V374.751H132.246V329.143H28.7539ZM132.246 277.536V231.928H28.7539V277.536H132.246ZM132.246 423.359V377.751H28.7539V423.359H132.246Z" fill="#2F2E41"/>
<path id="Vector_6" d="M164.879 159.255V163.399C164.879 163.399 167.839 164.583 167.839 169.319C167.839 174.056 170.207 191.816 170.207 191.816C170.207 191.816 166.063 195.369 162.511 194.185C160.545 193.588 158.728 192.578 157.182 191.224L156.59 172.872L158.959 168.135V159.847L164.879 159.255Z" fill="#6C63FF"/>
<path id="Vector_7" d="M157.183 153.927C157.183 153.927 163.695 150.375 164.879 153.927C166.063 157.479 169.615 165.175 164.879 165.767C160.143 166.359 155.406 162.215 155.406 162.215L157.183 153.927Z" fill="#FFB8B8"/>
<path id="Vector_8" d="M125.131 177.908C125.131 177.908 128.696 182.616 123.524 228.548C118.352 274.48 121.332 307.924 111.513 307.466C111.513 307.466 114.076 317.426 105.732 317.793C97.3889 318.16 93.5772 318.739 92.9277 316.438C92.2782 314.137 91.2612 303.493 93.5271 303.598C93.5271 303.598 93.3862 306.62 92.4397 294.464C91.4933 282.309 94.1732 224.907 90.7494 217.177L77.36 244.559C77.36 244.559 76.7605 257.399 74.2126 263.336C71.6646 269.272 66.266 303.839 66.266 303.839L66.7745 309.162C66.7745 309.162 48.5064 311.337 47.8922 308.28C47.2779 305.224 47.4895 300.692 48.3153 299.217C49.1411 297.741 49.1411 297.741 47.7716 294.65C47.1651 293.487 46.8153 292.208 46.7459 290.899C46.6764 289.59 46.8889 288.281 47.3689 287.062C48.23 284.831 50.522 235.737 50.522 235.737C50.522 235.737 54.8183 176.139 64.0229 173.541C73.2275 170.943 125.131 177.908 125.131 177.908Z" fill="#2F2E41"/>
<path id="Vector_9" d="M109.036 311.892L114.584 322.748C114.584 322.748 124.184 319.79 121.891 328.388C112.675 328.674 103.453 328.117 94.3399 326.723C94.3399 326.723 90.4929 328.057 89.8434 325.756C89.1939 323.455 92.2076 315.648 94.4735 315.753C96.7394 315.859 109.036 311.892 109.036 311.892Z" fill="#2F2E41"/>
<path id="Vector_10" d="M65.3698 306.825C65.3698 306.825 70.7774 320.703 68.4762 321.352C66.1751 322.002 45.6411 324.071 44.0952 324.756C42.5494 325.44 34.9612 325.843 34.4175 321.276C33.8737 316.709 38.476 315.41 38.476 315.41C38.476 315.41 46.8548 314.287 49.4733 306.84C52.0918 299.393 65.3698 306.825 65.3698 306.825Z" fill="#2F2E41"/>
<path id="Vector_11" d="M116.644 65.3112C107.909 65.3112 100.829 58.2308 100.829 49.4967C100.829 40.7626 107.909 33.6823 116.644 33.6823C125.378 33.6823 132.458 40.7626 132.458 49.4967C132.458 58.2308 125.378 65.3112 116.644 65.3112Z" fill="#FFB8B8"/>
<path id="Vector_12" d="M124.967 56.9878C124.967 56.9878 120.805 78.6286 122.47 82.7903C124.134 86.952 99.1642 81.1256 99.1642 81.1256C99.1642 81.1256 104.158 59.4848 103.326 54.4907C102.494 49.4967 124.967 56.9878 124.967 56.9878Z" fill="#FFB8B8"/>
<path id="Vector_13" d="M117.124 29.9635C118.439 29.7252 119.791 29.7849 121.08 30.1382C122.111 30.595 123.061 31.218 123.891 31.9824C125.397 33.1826 127.006 34.2483 128.698 35.1671C130.111 35.7753 131.384 36.6677 132.438 37.7889C132.883 38.4013 133.239 39.0742 133.494 39.7871C135.116 43.9296 135.552 48.4421 134.753 52.8186C134.663 53.4404 134.476 54.0443 134.198 54.6079C133.333 56.2018 131.422 56.8299 129.813 57.6654C126.757 59.2517 124.441 61.9229 121.934 64.2835C121.003 65.2128 119.957 66.019 118.821 66.6825C115.246 68.6321 110.875 67.996 106.861 67.3067C106.577 67.3061 106.295 67.2493 106.033 67.1394C105.77 67.0296 105.532 66.8689 105.332 66.6666C105.132 66.4643 104.975 66.2244 104.868 65.9608C104.761 65.6972 104.707 65.4151 104.71 65.1307L101.542 50.8806C100.967 48.7693 100.694 46.5874 100.73 44.3997C100.951 40.9405 102.823 36.1487 105.362 33.6915C108.32 30.8284 113.257 30.3729 117.124 29.9635Z" fill="#2F2E41"/>
<path id="Vector_14" d="M128.765 84.0677C128.765 84.0677 127.581 75.7793 120.477 75.1873C116.459 74.8079 112.491 74.0143 108.636 72.8192C108.044 72.8192 100.348 73.4112 96.7959 76.9634C96.7959 76.9634 94.4278 80.5155 93.2437 78.1474C92.0597 75.7793 92.0597 74.5952 89.6916 75.7793C87.3235 76.9634 87.3234 72.2271 83.1793 72.8192C79.0351 73.4112 68.3786 100.052 68.3786 100.052L71.9308 104.197C71.9308 104.197 76.667 136.166 68.3786 149.783C60.0902 163.399 56.5381 178.2 64.8265 181.16C73.1148 184.12 131.133 210.761 128.765 194.185C126.397 177.608 128.173 151.559 130.541 150.967C132.909 150.375 145.934 103.604 145.934 103.604C145.41 100.635 144.164 97.8401 142.306 95.4656C140.448 93.091 138.034 91.2099 135.278 89.9879C125.805 85.8438 128.765 84.0677 128.765 84.0677Z" fill="#575A88"/>
<path id="Vector_15" d="M142.382 100.644L145.934 103.605C145.934 103.605 147.118 116.629 147.118 117.221C147.118 117.813 145.934 124.917 147.118 125.509C148.302 126.102 150.67 137.942 150.078 138.534V140.31L158.367 153.335V165.767L138.83 153.335C138.83 153.335 127.581 152.151 129.357 142.086C131.134 132.022 142.382 100.644 142.382 100.644Z" fill="#575A88"/>
</g>
</g>
</svg>
